<?xml version="1.0" standalone="no"?>
<!DOCTYPE svg PUBLIC "-//W3C//DTD SVG 1.1//EN" "http://www.w3.org/Graphics/SVG/1.1/DTD/svg11.dtd" >
<svg xmlns="http://www.w3.org/2000/svg" xmlns:xlink="http://www.w3.org/1999/xlink" version="1.1">
<metadata>
Created by FontForge 20170731 at Thu Jul 11 22:33:01 2013
 By Aleksey,,,
Copyright (c) 2012 by Henrik Kubel, A2/SW/HK. All rights reserved. Amplify typeface is based on Henrik Kubel's Outsiders typeface. It was commissioned by Co: company &#38; Graham Clifford based in NYC in 2013.
</metadata>
<defs>
<font id="AmplifyBold-Bold" horiz-adv-x="600" >
  <font-face 
    font-family="Amplify Bold"
    font-weight="700"
    font-stretch="normal"
    units-per-em="1000"
    panose-1="2 0 5 3 5 0 0 2 0 4"
    ascent="750"
    descent="-250"
    x-height="504"
    cap-height="700"
    bbox="-27 -253 3774 1004"
    underline-thickness="20"
    underline-position="-173"
    unicode-range="U+0020-FB06"
  />
<missing-glyph horiz-adv-x="200" 
 />
    <glyph glyph-name="fi" unicode="fi" horiz-adv-x="649" 
d="M594 0h-188q-20 0 -33.5 14t-13.5 33t13.5 33t33.5 14h14v316h-171v-316h34q19 0 33 -14t14 -33t-14 -33t-33 -14h-208q-19 0 -33 14t-14 33t14 33t33 14h34v316h-38q-19 0 -33 14t-14 33t14 33t33 14h38v40q0 23 6 45.5t21.5 46.5t38.5 42.5t61 30t86 11.5q77 0 131 -23
q41 -18 41 -54q0 -23 -14 -41.5t-42 -18.5q-22 0 -54.5 9.5t-53.5 9.5q-46 0 -63.5 -20t-17.5 -46v-32h264q19 0 33 -14t14 -33v-363h34q20 0 33.5 -14t13.5 -33t-13.5 -33t-33.5 -14z" />
    <glyph glyph-name="fl" unicode="fl" horiz-adv-x="652" 
d="M584 0h-188q-20 0 -33.5 14t-13.5 33t13.5 33t33.5 14h24v495q-54 14 -90 14q-46 0 -63.5 -20.5t-17.5 -46.5v-32h59q20 0 33.5 -14t13.5 -33t-13.5 -33t-33.5 -14h-59v-316h34q19 0 33 -14t14 -33t-14 -33t-33 -14h-208q-19 0 -33 14t-14 33t14 33t33 14h34v316h-38
q-19 0 -33 14t-14 33t14 33t33 14h38v40q0 23 5 45.5t19 46.5t35.5 42t58.5 30t85 12q68 0 130 -20h71q19 0 33 -14t14 -33v-559h24q20 0 33.5 -14t13.5 -33t-13.5 -33t-33.5 -14z" />
    <glyph glyph-name="fy" unicode="fy" horiz-adv-x="894" 
d="M350 47q0 -19 -14 -33t-33 -14h-228q-19 0 -33 14t-14 33t14 33t33 14h34v316h-38q-19 0 -33 14t-14 33t14 33t33 14h38v60q0 65 40 110.5t131 45.5q64 0 103 -22q29 -17 29 -49q0 -26 -19 -42t-43 -13q-8 1 -26 4.5t-27 3.5q-29 0 -38.5 -17t-9.5 -49v-32h299
q20 0 33.5 -14t13.5 -33t-13.5 -33t-33.5 -14h-25l87 -269l84 269h-10q-20 0 -33.5 14t-13.5 33t13.5 33t33.5 14h159q19 0 33 -14t14 -33t-14 -33t-33 -14h-9l-145 -409q-36 -115 -85 -164q-56 -57 -142 -57q-51 0 -75.5 20t-24.5 49t20.5 43t54.5 8q11 -2 31 -2
q24 0 41 14.5t25 34.5l6 15l-160 448h-131v-316h54q19 0 33 -14t14 -33z" />
    <glyph glyph-name=".notdef" horiz-adv-x="200" 
 />
    <glyph glyph-name=".null" horiz-adv-x="0" 
 />
    <glyph glyph-name="nonmarkingreturn" horiz-adv-x="333" 
 />
    <glyph glyph-name="space" unicode=" " horiz-adv-x="216" 
 />
    <glyph glyph-name="exclam" unicode="!" horiz-adv-x="291" 
d="M85 305l-28 319v8q0 42 26 65t63 23t63.5 -23t26.5 -65v-8l-28 -319q-1 -23 -19 -38t-43 -15q-24 0 -42 15t-19 38zM145 -10q-42 0 -71.5 29.5t-29.5 71.5t29.5 71.5t71.5 29.5t71.5 -29.5t29.5 -71.5t-29.5 -71.5t-71.5 -29.5z" />
    <glyph glyph-name="quotedbl" unicode="&#x22;" horiz-adv-x="477" 
d="M275 418v211q0 39 24 60t57 21t57.5 -20t24.5 -55q0 -9 -2 -19l-33 -216q-4 -25 -22.5 -40t-42.5 -15q-26 0 -44.5 18t-18.5 55zM52 418v211q0 39 24 60t57 21t57.5 -20t24.5 -55q0 -9 -2 -19l-33 -216q-4 -25 -22.5 -40t-42.5 -15q-26 0 -44.5 18t-18.5 55z" />
    <glyph glyph-name="numbersign" unicode="#" horiz-adv-x="727" 
d="M373 643l-32 -124h128l38 151q10 40 55 40q19 0 34.5 -16t15.5 -38q0 -5 -2 -13l-32 -124h68q21 0 36 -16t15 -38t-15 -37t-36 -15h-95l-31 -124h86q21 0 36 -15.5t15 -37.5t-15 -37.5t-36 -15.5h-113l-39 -153q-5 -18 -19.5 -29t-34.5 -11q-23 0 -36.5 15.5t-13.5 38.5
q0 3 2 13l32 126h-128l-38 -153q-4 -18 -19 -29t-35 -11q-23 0 -37 16t-14 38q0 3 2 13l32 126h-66q-21 0 -36 16t-15 38t15 37t36 15h93l31 124h-84q-21 0 -36 15.5t-15 37.5t15 37.5t36 15.5h111l38 151q12 40 56 40q19 0 34 -16t15 -38q0 -5 -2 -13zM315 413l-32 -124
h128l31 124h-127z" />
    <glyph glyph-name="dollar" unicode="$" horiz-adv-x="631" 
d="M240 -81l5 74q-86 6 -130 21q-34 11 -48.5 29.5t-14.5 49.5v113q0 25 18 41t42 16t41.5 -14.5t22.5 -40.5l17 -90q16 -4 60 -10l12 182q-63 19 -89 30q-61 26 -96 69t-35 115q0 91 68 145.5t181 59.5l6 80q2 17 15.5 28.5t30.5 9.5t28.5 -15t10.5 -30l-5 -75
q63 -5 120 -24q52 -17 47 -66l-8 -102q-2 -25 -19 -39.5t-38 -14.5q-22 0 -39.5 14t-19.5 40l-7 71q-14 4 -44 8l-13 -180q42 -12 79 -25q153 -55 153 -178q0 -93 -66.5 -155t-194.5 -66l-5 -78q-1 -17 -14.5 -29t-30.5 -10q-18 2 -29.5 15.5t-10.5 30.5zM438 187
q0 33 -22.5 50.5t-66.5 30.5l-11 -162q100 11 100 81zM263 444l13 -5l11 157q-47 -5 -71.5 -25.5t-24.5 -49.5q0 -28 17.5 -46t54.5 -31z" />
    <glyph glyph-name="percent" unicode="%" horiz-adv-x="792" 
d="M594 256q-61 0 -61 -86t61 -86t61 86t-61 86zM594 -10q-71 0 -118.5 47t-47.5 133q0 85 47.5 132t118.5 47t118.5 -47t47.5 -132q0 -86 -47.5 -133t-118.5 -47zM98 76l518 617q14 15 35.5 17t37.5 -11q17 -14 19 -36t-12 -37l-518 -617q-14 -17 -35 -19t-38 12
q-16 14 -18.5 36t11.5 38zM198 351q-71 0 -118.5 47t-47.5 133q0 85 47.5 132t118.5 47t118.5 -47t47.5 -132q0 -86 -47.5 -133t-118.5 -47zM198 617q-61 0 -61 -86t61 -86t61 86t-61 86z" />
    <glyph glyph-name="ampersand" unicode="&#x26;" horiz-adv-x="789" 
d="M528 481h184q22 0 38 -14.5t16 -35.5t-16 -36t-38 -15h-18q-38 -88 -121 -202q51 -44 135 -77q32 -13 32 -50q0 -25 -16.5 -43t-49.5 -18q-10 0 -16 1q-78 13 -170 91q-90 -92 -216 -92q-98 0 -161.5 59t-63.5 142q0 124 133 202q-66 62 -66 149q0 64 49.5 116t135.5 52
q90 0 133.5 -45t43.5 -102q0 -74 -55 -111q-31 -18 -60 -4.5t-29 40.5q0 18 12 31q17 20 17 34q0 22 -15.5 36.5t-41.5 14.5q-29 0 -47 -18.5t-18 -44.5v-2q0 -22 16 -46.5t64 -74.5l164 -162q12 15 36.5 57t35.5 67h-27q-23 0 -39 15t-16 36t16 35.5t39 14.5zM188 203v-2
q0 -36 26.5 -63t70.5 -27q61 0 112 52q-24 24 -68.5 67.5t-79.5 78.5q-61 -44 -61 -106z" />
    <glyph glyph-name="quotesingle" unicode="'" horiz-adv-x="254" 
d="M53 418v211q0 39 24 60t57 21t57.5 -20t24.5 -55q0 -9 -2 -19l-33 -216q-4 -25 -22.5 -40t-42.5 -15q-26 0 -44.5 18t-18.5 55z" />
    <glyph glyph-name="parenleft" unicode="(" horiz-adv-x="328" 
d="M32 333q0 242 163 440q21 27 52 27q23 0 40 -16t17 -40q0 -16 -9 -34q-120 -193 -120 -377t120 -377q9 -18 9 -34q0 -24 -17 -40t-40 -16q-31 0 -52 27q-163 198 -163 440z" />
    <glyph glyph-name="parenright" unicode=")" horiz-adv-x="328" 
d="M296 333q0 -242 -163 -440q-21 -27 -52 -27q-23 0 -40 16t-17 40q0 16 9 34q120 193 120 377t-120 377q-9 18 -9 34q0 24 17 40t40 16q31 0 52 -27q163 -198 163 -440z" />
    <glyph glyph-name="asterisk" unicode="*" horiz-adv-x="541" 
d="M269 383l-73 -105q-18 -24 -49 -24q-26 0 -48.5 20t-22.5 47q0 28 25 50l82 77l-103 25q-21 5 -32.5 20.5t-11.5 34.5q0 28 18.5 50.5t46.5 22.5q20 0 40 -14l78 -49l-17 112q-1 4 -1 11q0 27 20.5 43t48.5 16q29 0 49 -16t20 -43q0 -7 -1 -11l-16 -112l79 49
q20 14 39 14q28 0 46.5 -22.5t18.5 -50.5q0 -19 -11.5 -34.5t-33.5 -20.5l-102 -25l83 -77q23 -22 23 -50q0 -27 -21.5 -47t-49.5 -20q-29 0 -47 24z" />
    <glyph glyph-name="plus" unicode="+" 
d="M108 281q-28 0 -48 20.5t-20 49.5t19.5 49t48.5 20h121v123q0 28 21 48t51 20q29 0 50 -20t21 -48v-123h120q29 0 48.5 -20t19.5 -50q0 -29 -20 -49t-48 -20h-120v-122q0 -28 -21.5 -48t-50.5 -20t-50 20t-21 48v122h-121z" />
    <glyph glyph-name="comma" unicode="," horiz-adv-x="287" 
d="M136 192q47 0 78.5 -32t31.5 -84q0 -66 -37.5 -126t-97.5 -94q-24 -12 -41.5 -2t-17.5 30q0 13 16 29q48 48 72 92q-9 -1 -14 -1q-39 0 -63.5 27t-24.5 65q0 40 29 68t69 28z" />
    <glyph glyph-name="hyphen" unicode="-" horiz-adv-x="444" 
d="M327 235h-210q-28 0 -48 20.5t-20 49.5t19.5 49t48.5 20h210q29 0 48.5 -20t19.5 -49t-20 -49.5t-48 -20.5z" />
    <glyph glyph-name="period" unicode="." horiz-adv-x="278" 
d="M38 91q0 42 29.5 71.5t71.5 29.5t71.5 -29.5t29.5 -71.5t-29.5 -71.5t-71.5 -29.5t-71.5 29.5t-29.5 71.5z" />
    <glyph glyph-name="slash" unicode="/" horiz-adv-x="537" 
d="M30 -44l386 778q10 17 30.5 23.5t39.5 -2.5q20 -10 26.5 -30.5t-2.5 -38.5l-386 -778q-10 -19 -30 -25.5t-41 3.5q-19 10 -25.5 30.5t2.5 39.5z" />
    <glyph glyph-name="zero" unicode="0" 
d="M298 710q121 0 198 -93.5t77 -266.5q0 -174 -76.5 -267t-198.5 -93q-120 0 -196 93.5t-76 266.5t76.5 266.5t195.5 93.5zM298 113q57 0 89 59.5t32 177.5q0 119 -32 178.5t-89 59.5q-53 0 -86.5 -61t-33.5 -177t33.5 -176.5t86.5 -60.5z" />
    <glyph glyph-name="one" unicode="1" 
d="M392 651v-532h101q23 0 40.5 -18.5t17.5 -41.5q0 -24 -17.5 -41.5t-40.5 -17.5h-350q-23 0 -40.5 17.5t-17.5 41.5q0 23 17.5 41.5t40.5 18.5h101v427l-97 -33q-35 -12 -58.5 11.5t-19.5 57t37 46.5l195 76q32 13 61.5 -2.5t29.5 -50.5z" />
    <glyph glyph-name="two" unicode="2" 
d="M95 178l199 165q51 41 78.5 77t27.5 80q0 38 -26 64.5t-72 26.5q-61 0 -107 -37l-10 -84q-3 -27 -20 -42t-42 -15q-24 0 -41 16.5t-17 42.5v173q0 32 17.5 48.5t42.5 16.5q19 0 34.5 -11t19.5 -28l3 -16q64 55 150 55q91 0 151 -55.5t60 -141.5q0 -72 -38 -130t-111 -118
l-179 -146h286q23 0 40.5 -18.5t17.5 -41.5q0 -24 -17.5 -41.5t-40.5 -17.5h-365q-40 0 -65 26t-25 62q0 50 49 90z" />
    <glyph glyph-name="three" unicode="3" 
d="M547 236q0 -118 -90 -182t-222 -64q-81 0 -139 17q-50 15 -50 62q0 24 17 43t42 19q6 0 59.5 -8t79.5 -8q77 0 116.5 31t39.5 79q0 40 -27 61.5t-79 21.5q-10 0 -33 -3t-37 -3q-29 0 -48 20.5t-19 49.5q0 32 33 61l168 142h-242q-25 0 -43.5 18.5t-18.5 43.5t18.5 44
t43.5 19h333q39 0 62.5 -22.5t23.5 -54.5q0 -43 -46 -80l-160 -129q88 5 153 -44t65 -134z" />
    <glyph glyph-name="four" unicode="4" 
d="M335 267v107q0 30 22 51.5t52 21.5t51.5 -21.5t21.5 -51.5v-107h49q27 0 44.5 -16t17.5 -42t-17.5 -42t-44.5 -16h-49v-88q0 -30 -21.5 -51.5t-51.5 -21.5t-52 21.5t-22 51.5v88h-225q-48 0 -74.5 25.5t-26.5 63.5q0 31 17 61l211 370q23 39 65 39q26 0 46 -17.5
t20 -44.5q0 -28 -16 -55l-192 -326h175z" />
    <glyph glyph-name="five" unicode="5" 
d="M142 700h326q25 0 43.5 -19t18.5 -44t-18.5 -43.5t-43.5 -18.5h-256l-9 -129q51 24 118 24q108 1 168.5 -64t60.5 -155q0 -125 -90 -193t-222 -68q-81 0 -139 17q-50 15 -50 62q0 24 17 43t42 19q6 0 59.5 -8t79.5 -8q78 0 117.5 34t39.5 89q0 51 -31.5 81t-81.5 30
q-18 0 -37.5 -3.5t-32 -6.5t-29 -8.5l-19.5 -6.5q-36 -11 -69.5 8t-30.5 62l17 256q2 21 16.5 35.5t35.5 14.5z" />
    <glyph glyph-name="six" unicode="6" 
d="M342 455q92 0 164 -60t72 -164q0 -106 -76 -173.5t-192 -67.5q-120 0 -197 83t-77 208q0 75 30 145t73 118t94 87t89 59t62 27q17 5 31 5q21 0 38 -15.5t17 -44.5q0 -15 -8.5 -30.5t-22.5 -21.5q-1 -1 -21 -12.5t-26.5 -15.5t-26.5 -16.5t-30 -20t-29 -21.5t-31 -26.5
t-27.5 -28t-28.5 -33t-24 -35.5q58 54 147 54zM433 227q0 53 -36 87t-87 34t-87 -34t-36 -87q0 -54 35.5 -86.5t87.5 -32.5t87.5 32.5t35.5 86.5z" />
    <glyph glyph-name="seven" unicode="7" 
d="M569 637q0 -27 -44 -107q-2 -3 -3 -5t-2.5 -4.5t-2.5 -4.5l-25 -45q-73 -134 -98 -206q-34 -97 -44 -203q-3 -32 -24.5 -52t-52.5 -20q-32 0 -56 19.5t-24 54.5q0 65 46 181.5t131 258.5l42 71h-238l-7 -75q-2 -27 -19.5 -42t-42.5 -15q-24 0 -41 16.5t-17 42.5v148
q2 21 16.5 35.5t35.5 14.5h401q27 0 48 -16.5t21 -46.5z" />
    <glyph glyph-name="eight" unicode="8" 
d="M300 315q-54 -11 -88.5 -40.5t-34.5 -69.5q0 -42 34.5 -68.5t88.5 -26.5t88.5 26.5t34.5 68.5q0 40 -34.5 69.5t-88.5 40.5zM300 422q106 23 106 95q0 34 -29.5 55.5t-76.5 21.5t-76.5 -21.5t-29.5 -55.5q0 -72 106 -95zM300 710q108 0 181.5 -53t73.5 -136
q0 -55 -29 -94.5t-80 -57.5q53 -17 90.5 -65t37.5 -104q0 -102 -79.5 -156t-194.5 -54t-194.5 54t-79.5 156q0 56 37.5 104t90.5 65q-51 18 -80 57.5t-29 94.5q0 83 73.5 136t181.5 53z" />
    <glyph glyph-name="nine" unicode="9" 
d="M258 245q-92 0 -164 60t-72 164q0 106 76 173.5t192 67.5q120 0 197 -83t77 -208q0 -75 -30 -145t-73 -118t-94 -87t-89 -59t-62 -27q-18 -5 -31 -5q-21 0 -38 15.5t-17 44.5q0 15 8.5 30.5t22.5 21.5q1 1 21 12.5t26.5 15.5t26.5 16.5t30 20t29 21.5t31 26.5t27.5 28
t28.5 33t24 35.5q-60 -54 -147 -54zM167 473q0 -53 36 -87t87 -34t87 34t36 87q0 54 -35.5 86.5t-87.5 32.5t-87.5 -32.5t-35.5 -86.5z" />
    <glyph glyph-name="colon" unicode=":" horiz-adv-x="298" 
d="M48 91q0 42 29.5 71.5t71.5 29.5t71.5 -29.5t29.5 -71.5t-29.5 -71.5t-71.5 -29.5t-71.5 29.5t-29.5 71.5zM48 403q0 42 29.5 71.5t71.5 29.5t71.5 -29.5t29.5 -71.5t-29.5 -71.5t-71.5 -29.5t-71.5 29.5t-29.5 71.5z" />
    <glyph glyph-name="semicolon" unicode=";" horiz-adv-x="303" 
d="M48 403q0 42 29.5 71.5t71.5 29.5t71.5 -29.5t29.5 -71.5t-29.5 -71.5t-71.5 -29.5t-71.5 29.5t-29.5 71.5zM146 192q47 0 78.5 -32t31.5 -84q0 -66 -37.5 -126t-97.5 -94q-24 -12 -41.5 -2t-17.5 30q0 13 16 29q48 48 72 92q-9 -1 -14 -1q-39 0 -63.5 27t-24.5 65
q0 40 29 68t69 28z" />
    <glyph glyph-name="less" unicode="&#x3c;" horiz-adv-x="900" 
d="M31 349q0 10 9 19l308 311q35 35 72 35q32 0 54 -23t22 -54q0 -32 -26 -58l-157 -150h470q33 0 56.5 -23.5t23.5 -56.5t-23.5 -56.5t-56.5 -23.5h-470l157 -150q26 -26 26 -58q0 -31 -22 -54t-54 -23q-37 0 -72 35l-308 311q-9 9 -9 19z" />
    <glyph glyph-name="equal" unicode="=" 
d="M108 404q-28 0 -48 20.5t-20 49.5t19.5 49t48.5 20h384q29 0 48.5 -20t19.5 -50q0 -29 -20 -49t-48 -20h-384zM108 157q-28 0 -48 20.5t-20 49.5t19.5 49t48.5 20h384q29 0 48.5 -20t19.5 -50q0 -29 -20 -49t-48 -20h-384z" />
    <glyph glyph-name="greater" unicode="&#x3e;" horiz-adv-x="900" 
d="M869 349q0 -10 -9 -19l-308 -311q-35 -35 -72 -35q-32 0 -54 23t-22 54q0 32 26 58l157 150h-470q-33 0 -56.5 23.5t-23.5 56.5t23.5 56.5t56.5 23.5h470l-157 150q-26 26 -26 58q0 31 22 54t54 23q37 0 72 -35l308 -311q9 -9 9 -19z" />
    <glyph glyph-name="question" unicode="?" horiz-adv-x="474" 
d="M295 528q0 61 -67 61q-39 0 -65 -13l-6 -66q-2 -27 -19.5 -42t-42.5 -15q-24 0 -41 16.5t-17 42.5v133q0 32 17.5 48.5t42.5 16.5q31 0 47 -29q60 29 118 29q86 0 135.5 -47.5t49.5 -112.5q0 -33 -8.5 -59.5t-32.5 -54.5t-36.5 -40.5t-50.5 -46.5q-22 -21 -22 -48v-5
q0 -27 -20.5 -43t-48.5 -16t-48.5 18t-20.5 52v6q0 33 21.5 67t46.5 56t46.5 47.5t21.5 44.5zM234 -10q-42 0 -71.5 29.5t-29.5 71.5t29.5 71.5t71.5 29.5t71.5 -29.5t29.5 -71.5t-29.5 -71.5t-71.5 -29.5z" />
    <glyph glyph-name="at" unicode="@" horiz-adv-x="1008" 
d="M733 156q0 -21 11.5 -37.5t36.5 -16.5q8 0 16.5 4t18 16.5t17 32t12.5 55t5 82.5q0 142 -100 229t-234 87q-68 0 -131.5 -23t-115 -66t-83 -114t-31.5 -158q0 -76 22 -138t58.5 -103t85.5 -69t101 -40t107 -12q101 0 210 49q18 8 32 8q22 0 36.5 -15t14.5 -35
q0 -30 -28 -47q-111 -65 -273 -65q-93 0 -178 29.5t-154 85.5t-110.5 147t-41.5 204q0 135 65 242t174 164.5t241 57.5q189 0 318 -120.5t129 -300.5q0 -145 -58 -221t-147 -76q-93 0 -136 65q-48 -65 -145 -65q-105 0 -165 75.5t-60 172.5q0 116 62 184.5t153 68.5
q79 0 133 -59l15 24q23 35 60 35q24 0 40.5 -17t16.5 -45v-275zM602 244q0 70 -29 104.5t-77 34.5t-77 -35.5t-29 -106.5q0 -70 29 -104.5t77 -34.5t77 35.5t29 106.5z" />
    <glyph glyph-name="A" unicode="A" horiz-adv-x="734" 
d="M178 599q-20 0 -35 15t-15 36t15 35.5t35 14.5h238q53 0 69 -50l172 -549h30q20 0 35 -15t15 -36t-15 -35.5t-35 -14.5h-240q-20 0 -35 14.5t-15 35.5t15 36t35 15h58l-39 135h-207l-39 -135h62q20 0 35 -15t15 -36t-15 -35.5t-35 -14.5h-228q-20 0 -35 14.5t-15 35.5
t15 36t35 15h30l161 498h-67zM362 585l-71 -241h144l-68 241h-5z" />
    <glyph glyph-name="B" unicode="B" horiz-adv-x="712" 
d="M89 0q-20 0 -35 14.5t-15 35.5t15 36t35 15h40v498h-40q-20 0 -35 15t-15 36t15 35.5t35 14.5h306q112 0 173 -51.5t61 -127.5q0 -40 -21 -81.5t-74 -68.5q68 -16 105 -61.5t37 -110.5q0 -82 -67 -140.5t-189 -58.5h-331zM409 296h-132v-181h132q54 0 84.5 23.5
t30.5 67.5t-30.5 67t-84.5 23zM487 501q0 36 -28 60t-82 24h-100v-174h145q28 14 46.5 38t18.5 52z" />
    <glyph glyph-name="C" unicode="C" horiz-adv-x="656" 
d="M614 114q0 -34 -29 -55q-95 -69 -232 -69q-132 0 -221 90t-89 262q0 174 79 271t216 97q42 0 83.5 -16.5t62.5 -44.5l7 25q4 17 19.5 26.5t35.5 9.5q26 0 44 -16.5t18 -48.5v-173q0 -26 -17 -42.5t-41 -16.5q-52 0 -66 48q-21 69 -47 100t-84 31q-73 0 -113.5 -61
t-40.5 -186q0 -114 46.5 -169.5t131.5 -55.5q37 0 71 14.5t60 29t44 14.5q26 0 44 -19.5t18 -44.5z" />
    <glyph glyph-name="D" unicode="D" horiz-adv-x="775" 
d="M277 115h67q233 0 233 235t-233 235h-67v-470zM89 0q-20 0 -35 14.5t-15 35.5t15 36t35 15h40v498h-40q-20 0 -35 15t-15 36t15 35.5t35 14.5h291q154 0 253.5 -89.5t99.5 -260.5t-99.5 -260.5t-253.5 -89.5h-291z" />
    <glyph glyph-name="E" unicode="E" horiz-adv-x="716" 
d="M277 585v-181h88v42q0 23 15.5 39t40.5 16q26 0 40.5 -16t14.5 -39v-195q0 -23 -14.5 -39t-40.5 -16q-25 0 -40.5 16t-15.5 39v45h-88v-181h259l26 94q7 24 26.5 35.5t39.5 9t35.5 -17.5t14.5 -38l-7 -147q-1 -22 -14.5 -36.5t-38.5 -14.5h-529q-20 0 -35 14.5t-15 35.5
t15 36t35 15h40v498h-40q-20 0 -35 15t-15 36t15 35.5t35 14.5h502q20 0 35 -15t15 -36v-139q0 -24 -16.5 -38.5t-37.5 -15t-39.5 13.5t-21.5 39l-10 76h-239z" />
    <glyph glyph-name="F" unicode="F" horiz-adv-x="647" 
d="M496 585h-219v-191h78v42q0 23 15.5 39t40.5 16q26 0 40.5 -16t14.5 -39v-195q0 -23 -14.5 -39t-40.5 -16q-25 0 -40.5 16t-15.5 39v45h-78v-185h80q20 0 35 -15t15 -36t-15 -35.5t-35 -14.5h-268q-20 0 -35 14.5t-15 35.5t15 36t35 15h40v498h-40q-20 0 -35 15t-15 36
t15 35.5t35 14.5h482q20 0 35 -15t15 -36v-139q0 -24 -16.5 -38.5t-37.5 -15t-39.5 13.5t-21.5 39z" />
    <glyph glyph-name="G" unicode="G" horiz-adv-x="741" 
d="M374 592q-81 0 -128.5 -62t-47.5 -184q0 -116 57.5 -175t150.5 -59q65 0 113 22v125h-125q-21 0 -36.5 17t-15.5 41t15.5 40.5t36.5 16.5h278q21 0 36.5 -16.5t15.5 -40.5t-15.5 -41t-36.5 -17h-10v-116q0 -43 -12.5 -65.5t-52.5 -42.5q-90 -45 -226 -45
q-140 0 -234.5 92t-94.5 264t89 268t228 96q44 0 89.5 -16.5t66.5 -44.5l7 25q4 17 19.5 26.5t35.5 9.5q26 0 44 -16.5t18 -48.5v-153q0 -26 -17 -42.5t-41 -16.5q-46 0 -66 48q-22 52 -53 81.5t-88 29.5z" />
    <glyph glyph-name="H" unicode="H" horiz-adv-x="845" 
d="M317 599h-40v-195h291v195h-40q-20 0 -35 15t-15 36t15 35.5t35 14.5h228q20 0 35 -14.5t15 -35.5t-15 -36t-35 -15h-40v-498h40q20 0 35 -15t15 -36t-15 -35.5t-35 -14.5h-228q-20 0 -35 14.5t-15 35.5t15 36t35 15h40v195h-291v-195h40q20 0 35 -15t15 -36t-15 -35.5
t-35 -14.5h-228q-20 0 -35 14.5t-15 35.5t15 36t35 15h40v498h-40q-20 0 -35 15t-15 36t15 35.5t35 14.5h228q20 0 35 -14.5t15 -35.5t-15 -36t-35 -15z" />
    <glyph glyph-name="I" unicode="I" horiz-adv-x="430" 
d="M289 101h60q20 0 35 -15t15 -36t-15 -35.5t-35 -14.5h-268q-20 0 -35 14.5t-15 35.5t15 36t35 15h60v498h-60q-20 0 -35 15t-15 36t15 35.5t35 14.5h268q20 0 35 -14.5t15 -35.5t-15 -36t-35 -15h-60v-498z" />
    <glyph glyph-name="J" unicode="J" horiz-adv-x="413" 
d="M304 599v-530q0 -112 -54.5 -173.5t-146.5 -61.5q-51 0 -86 12q-43 15 -43 59q0 25 15.5 43t40.5 18q8 0 26.5 -2.5t25.5 -2.5q41 0 57.5 29.5t16.5 104.5v504h-60q-20 0 -35 15t-15 36t15 35.5t35 14.5h228q20 0 35 -14.5t15 -35.5t-15 -36t-35 -15h-20z" />
    <glyph glyph-name="K" unicode="K" horiz-adv-x="751" 
d="M523 50l-100 179q-21 37 -43 52t-56 15h-47v-195h60q20 0 35 -15t15 -36t-15 -35.5t-35 -14.5h-248q-20 0 -35 14.5t-15 35.5t15 36t35 15h40v498h-40q-20 0 -35 15t-15 36t15 35.5t35 14.5h228q20 0 35 -14.5t15 -35.5t-15 -36t-35 -15h-40v-189h99l138 189h-43
q-20 0 -35 15t-15 36t15 35.5t35 14.5h206q20 0 35 -14.5t15 -35.5t-15 -36t-35 -15h-22l-177 -232q55 -30 96 -103l91 -163h28q20 0 35 -15t15 -36t-15 -35.5t-35 -14.5h-100q-41 0 -70 50z" />
    <glyph glyph-name="L" unicode="L" horiz-adv-x="642" 
d="M277 115h199l26 94q7 24 26.5 35.5t39.5 9t35.5 -17.5t14.5 -38l-7 -147q-1 -22 -15.5 -36.5t-37.5 -14.5h-469q-20 0 -35 14.5t-15 35.5t15 36t35 15h40v498h-40q-20 0 -35 15t-15 36t15 35.5t35 14.5h228q20 0 35 -14.5t15 -35.5t-15 -36t-35 -15h-40v-484z" />
    <glyph glyph-name="M" unicode="M" horiz-adv-x="943" 
d="M337 0h-248q-20 0 -35 14.5t-15 35.5t15 36t35 15h40v498h-40q-20 0 -35 15t-15 36t15 35.5t35 14.5h188q35 0 55.5 -10.5t31.5 -39.5l109 -279l111 279q11 29 31.5 39.5t55.5 10.5h183q20 0 35 -14.5t15 -35.5t-15 -36t-35 -15h-40v-498h40q20 0 35 -15t15 -36
t-15 -35.5t-35 -14.5h-258q-20 0 -35 14.5t-15 35.5t15 36t35 15h70v457l-122 -296q-24 -57 -76 -57q-55 0 -79 57l-122 296v-457h70q20 0 35 -15t15 -36t-15 -35.5t-35 -14.5z" />
    <glyph glyph-name="N" unicode="N" horiz-adv-x="834" 
d="M526 46l-259 482v-427h40q20 0 35 -15t15 -36t-15 -35.5t-35 -14.5h-218q-20 0 -35 14.5t-15 35.5t15 36t35 15h40v498h-40q-20 0 -35 15t-15 36t15 35.5t35 14.5h173q33 0 51.5 -10.5t33.5 -39.5l231 -443v392h-40q-20 0 -35 15t-15 36t15 35.5t35 14.5h218
q20 0 35 -14.5t15 -35.5t-15 -36t-35 -15h-40v-505q0 -49 -28.5 -76.5t-68.5 -27.5q-63 0 -93 56z" />
    <glyph glyph-name="O" unicode="O" horiz-adv-x="744" 
d="M372 710q150 0 240 -92.5t90 -267.5q0 -174 -90 -267t-240 -93q-151 0 -240.5 92.5t-89.5 267.5t89.5 267.5t240.5 92.5zM372 113q174 0 174 237q0 240 -174 240t-174 -240q0 -237 174 -237z" />
    <glyph glyph-name="P" unicode="P" horiz-adv-x="661" 
d="M277 101h60q20 0 35 -15t15 -36t-15 -35.5t-35 -14.5h-248q-20 0 -35 14.5t-15 35.5t15 36t35 15h40v498h-40q-20 0 -35 15t-15 36t15 35.5t35 14.5h289q115 0 185 -59.5t70 -155.5t-70 -155.5t-185 -59.5h-101v-169zM277 585v-200h95q48 0 79.5 28t31.5 72t-31.5 72
t-79.5 28h-95z" />
    <glyph glyph-name="Q" unicode="Q" horiz-adv-x="770" 
d="M372 710q150 0 240 -92.5t90 -267.5q0 -148 -68 -241l60 -62q16 -17 16.5 -40t-18.5 -44q-21 -18 -44.5 -17.5t-40.5 16.5l-65 67q-73 -39 -170 -39q-151 0 -240.5 92.5t-89.5 267.5t89.5 267.5t240.5 92.5zM372 113q46 0 75 14l-104 108q-16 14 -15.5 39.5t19.5 44.5
q21 19 44 18t39 -18l97 -100q19 55 19 131q0 240 -174 240t-174 -240q0 -237 174 -237z" />
    <glyph glyph-name="R" unicode="R" horiz-adv-x="723" 
d="M277 284v-183h60q20 0 35 -15t15 -36t-15 -35.5t-35 -14.5h-248q-20 0 -35 14.5t-15 35.5t15 36t35 15h40v498h-40q-20 0 -35 15t-15 36t15 35.5t35 14.5h308q119 0 187 -49.5t68 -146.5q0 -67 -47.5 -115t-125.5 -58q58 -12 97 -76l93 -154h20q20 0 35 -15t15 -36
t-15 -35.5t-35 -14.5h-88q-43 0 -70 50l-92 169q-35 65 -111 65h-51zM277 397h93q62 0 97 26t35 70q0 45 -31 68.5t-80 23.5h-114v-188z" />
    <glyph glyph-name="S" unicode="S" horiz-adv-x="632" 
d="M268 444q16 -6 76 -23.5t99 -31.5q153 -55 153 -178q0 -96 -70 -158.5t-205 -62.5q-123 0 -201 24q-34 11 -48.5 29.5t-14.5 49.5v113q0 25 18 41t42 16t41.5 -14.5t22.5 -40.5l17 -90q56 -13 113 -13q132 0 132 82q0 17 -7.5 30.5t-16 21.5t-28.5 16.5t-32 12t-40 10.5
q-97 25 -138 42q-61 26 -96 69t-35 115q0 94 74 150t195 56q104 0 186 -27q52 -17 47 -66l-8 -102q-2 -25 -19 -39.5t-38 -14.5q-22 0 -39.5 14t-19.5 40l-7 71q-57 12 -99 12q-62 0 -94 -21.5t-32 -55.5q0 -28 17.5 -46t54.5 -31z" />
    <glyph glyph-name="T" unicode="T" horiz-adv-x="692" 
d="M420 101h60q20 0 35 -15t15 -36t-15 -35.5t-35 -14.5h-268q-20 0 -35 14.5t-15 35.5t15 36t35 15h60v484h-110l-18 -104q-6 -34 -35 -45t-55 5t-25 49l4 159q1 21 15.5 36t34.5 15h526q20 0 34.5 -15t15.5 -36l4 -159q1 -33 -25 -49t-55 -5t-35 45l-18 104h-110v-484z
" />
    <glyph glyph-name="U" unicode="U" horiz-adv-x="784" 
d="M392 113q67 0 110 39.5t43 121.5v325h-60q-20 0 -35 15t-15 36t15 35.5t35 14.5h228q20 0 35 -14.5t15 -35.5t-15 -36t-35 -15h-30v-327q0 -128 -74.5 -205t-216.5 -77t-216.5 77t-74.5 205v327h-30q-20 0 -35 15t-15 36t15 35.5t35 14.5h228q20 0 35 -14.5t15 -35.5
t-15 -36t-35 -15h-50v-325q0 -83 38.5 -122t104.5 -39z" />
    <glyph glyph-name="V" unicode="V" horiz-adv-x="729" 
d="M365 -10q-43 0 -72 27.5t-40 62.5l-175 519h-30q-20 0 -35 15t-15 36t15 35.5t35 14.5h240q20 0 35 -14.5t15 -35.5t-15 -36t-35 -15h-63l142 -458h7l138 458h-59q-20 0 -35 15t-15 36t15 35.5t35 14.5h228q20 0 35 -14.5t15 -35.5t-15 -36t-35 -15h-30l-174 -519
q-12 -35 -40.5 -62.5t-71.5 -27.5z" />
    <glyph glyph-name="W" unicode="W" horiz-adv-x="1072" 
d="M750 -10q-72 0 -97 80l-120 373l-113 -373q-27 -80 -97 -80q-72 0 -97 80l-145 529h-30q-20 0 -35 15t-15 36t15 35.5t35 14.5h220q20 0 35 -14.5t15 -35.5t-15 -36t-35 -15h-45l103 -417l131 417h-34q-20 0 -35 15t-15 36t15 35.5t35 14.5h222q20 0 35 -14.5t15 -35.5
t-15 -36t-35 -15h-32l138 -419l105 419h-56q-20 0 -35 15t-15 36t15 35.5t35 14.5h218q20 0 35 -14.5t15 -35.5t-15 -36t-35 -15h-30l-144 -529q-27 -80 -97 -80z" />
    <glyph glyph-name="X" unicode="X" horiz-adv-x="709" 
d="M254 599l111 -154l107 154h-40q-20 0 -35 15t-15 36t15 35.5t35 14.5h200q20 0 35 -14.5t15 -35.5t-15 -36t-35 -15h-23l-173 -236l196 -262h23q20 0 35 -15t15 -36t-15 -35.5t-35 -14.5h-230q-20 0 -35 14.5t-15 35.5t15 36t35 15h39l-121 168l-122 -168h43q20 0 35 -15
t15 -36t-15 -35.5t-35 -14.5h-200q-20 0 -35 14.5t-15 35.5t15 36t35 15h20l188 248l-185 250h-23q-20 0 -35 15t-15 36t15 35.5t35 14.5h220q20 0 35 -14.5t15 -35.5t-15 -36t-35 -15h-30z" />
    <glyph glyph-name="Y" unicode="Y" horiz-adv-x="716" 
d="M429 101h60q20 0 35 -15t15 -36t-15 -35.5t-35 -14.5h-268q-20 0 -35 14.5t-15 35.5t15 36t35 15h60v155l-196 343h-30q-20 0 -35 15t-15 36t15 35.5t35 14.5h220q20 0 35 -14.5t15 -35.5t-15 -36t-35 -15h-40l129 -235h7l131 235h-42q-20 0 -35 15t-15 36t15 35.5
t35 14.5h208q20 0 35 -14.5t15 -35.5t-15 -36t-35 -15h-30l-209 -343v-155z" />
    <glyph glyph-name="Z" unicode="Z" horiz-adv-x="674" 
d="M193 585l-15 -91q-6 -35 -35 -47t-55.5 3.5t-26.5 49.5l-2 149q0 21 15 36t35 15h408q48 0 74 -25t24.5 -60.5t-28.5 -66.5l-378 -433h283l26 103q9 33 37.5 43t53.5 -7t25 -51l-2 -152q0 -22 -14 -36.5t-40 -14.5h-448q-47 0 -72 26t-22.5 61.5t27.5 64.5l379 433h-249z
" />
    <glyph glyph-name="bracketleft" unicode="[" horiz-adv-x="363" 
d="M76 726q0 21 15 35.5t35 14.5h168q20 0 35 -14.5t15 -35.5t-15 -36t-35 -15h-80v-715h80q20 0 35 -15t15 -36t-15 -35.5t-35 -14.5h-168q-20 0 -35 14.5t-15 35.5v817z" />
    <glyph glyph-name="backslash" unicode="\" horiz-adv-x="537" 
d="M507 -44q9 -19 2.5 -39.5t-25.5 -30.5q-21 -10 -41 -3.5t-30 25.5l-386 778q-9 18 -2.5 38.5t26.5 30.5q19 9 39.5 2.5t30.5 -23.5z" />
    <glyph glyph-name="bracketright" unicode="]" horiz-adv-x="363" 
d="M287 -91q0 -21 -15 -35.5t-35 -14.5h-168q-20 0 -35 14.5t-15 35.5t15 36t35 15h80v715h-80q-20 0 -35 15t-15 36t15 35.5t35 14.5h168q20 0 35 -14.5t15 -35.5v-817z" />
    <glyph glyph-name="asciicircum" unicode="^" 
d="M300 710q62 0 92 -67l141 -346q7 -18 7 -29q0 -27 -22 -45t-51 -18q-47 0 -63 42l-104 268l-104 -268q-16 -42 -63 -42q-29 0 -51 18t-22 45q0 12 7 29l141 346q30 67 92 67z" />
    <glyph glyph-name="underscore" unicode="_" horiz-adv-x="557" 
d="M435 -190h-313q-28 0 -48 20.5t-20 49.5t19.5 49t48.5 20h313q29 0 48.5 -20t19.5 -49t-20 -49.5t-48 -20.5z" />
    <glyph glyph-name="grave" unicode="`" horiz-adv-x="345" 
d="M81 661q-31 27 -31 59q0 30 23 52.5t54 22.5q35 0 60 -33l90 -114q18 -23 18 -41q0 -23 -17.5 -40.5t-41.5 -17.5q-22 0 -43 18z" />
    <glyph glyph-name="a" unicode="a" horiz-adv-x="551" 
d="M329 303v33q0 69 -75 69q-38 0 -73 -15l-6 -32q-4 -17 -19.5 -27.5t-34.5 -10.5q-22 0 -38.5 15t-16.5 44v89q0 23 16.5 36t38.5 13q35 0 46 -30l1 -3q60 30 120 30q83 0 132 -40.5t49 -128.5v-209q0 -21 4 -28.5t15 -7.5h7q19 0 30.5 -12.5t11.5 -36.5q0 -25 -22.5 -43
t-73.5 -18q-71 0 -97 59q-20 -22 -58 -40.5t-87 -18.5q-77 0 -122 44.5t-45 106.5q0 40 15 69t39.5 46.5t61.5 28.5t74 14.5t84 3.5h23zM329 210q-98 0 -127 -16q-28 -14 -28 -45q0 -21 15 -35.5t45 -14.5t57 14t38 27v70z" />
    <glyph glyph-name="b" unicode="b" horiz-adv-x="606" 
d="M344 -10q-93 0 -137 57l-15 -25q-15 -25 -45 -31.5t-55 13t-25 60.5v542h-24q-19 0 -33 14t-14 33t14 33t33 14h117q20 0 33.5 -14t13.5 -33v-202q59 63 143 63q101 0 161.5 -71t60.5 -194q0 -103 -59.5 -181t-168.5 -78zM317 399q-50 0 -80.5 -36.5t-30.5 -109.5
t30.5 -110.5t80.5 -37.5q51 0 82 37.5t31 110.5t-31 109.5t-82 36.5z" />
    <glyph glyph-name="c" unicode="c" horiz-adv-x="522" 
d="M285 -10q-112 0 -181.5 67.5t-69.5 194.5q0 123 62 192.5t161 69.5q36 0 64.5 -15.5t42.5 -34.5l5 10q21 40 55 40q23 0 38 -13t15 -39v-125q0 -21 -17 -37.5t-41 -16.5q-45 0 -69 47l-5 9q-18 34 -34.5 49.5t-42.5 15.5q-43 0 -68 -37t-25 -112q0 -78 34 -112.5
t85 -34.5q40 0 81.5 18.5t59.5 18.5h2q27 0 41 -17t14 -40q0 -36 -45 -62q-65 -36 -162 -36z" />
    <glyph glyph-name="d" unicode="d" horiz-adv-x="628" 
d="M446 0q-20 0 -33.5 14t-13.5 33q-44 -57 -140 -57q-56 0 -100.5 23t-71 60.5t-40 82.5t-13.5 93q0 122 62.5 193.5t163.5 71.5q80 0 139 -63v155h-44q-19 0 -33 14t-14 33t14 33t33 14h137q20 0 33.5 -14t13.5 -33v-559h24q19 0 33 -14t14 -33t-14 -33t-33 -14h-117z
M289 399q-51 0 -82 -36.5t-31 -109.5t31 -110.5t82 -37.5q50 0 80.5 37.5t30.5 110.5t-30.5 109.5t-80.5 36.5z" />
    <glyph glyph-name="e" unicode="e" horiz-adv-x="534" 
d="M438 218h-261q2 -49 34 -79.5t87 -30.5q40 0 81.5 18.5t59.5 18.5h2q27 0 41 -17t14 -40q0 -36 -45 -62q-65 -36 -160 -36q-118 0 -187.5 67.5t-69.5 197.5q0 47 14 91t41.5 82.5t76.5 62t113 23.5q101 0 161.5 -62t60.5 -170q0 -28 -16 -46t-47 -18zM184 319h177
q-3 44 -28 65t-60 21q-36 0 -60 -25.5t-29 -60.5z" />
    <glyph glyph-name="f" unicode="f" horiz-adv-x="379" 
d="M350 47q0 -19 -14 -33t-33 -14h-228q-19 0 -33 14t-14 33t14 33t33 14h34v316h-38q-19 0 -33 14t-14 33t14 33t33 14h38v60q0 65 40 110.5t131 45.5q64 0 103 -22q29 -17 29 -49q0 -26 -19 -42t-43 -13q-8 1 -26 4.5t-27 3.5q-29 0 -38.5 -17t-9.5 -49v-32h59
q20 0 33.5 -14t13.5 -33t-13.5 -33t-33.5 -14h-59v-316h54q19 0 33 -14t14 -33z" />
    <glyph glyph-name="g" unicode="g" horiz-adv-x="579" 
d="M49 345q0 58 34 97t83 55.5t108 16.5q70 0 126 -25l76 53q21 14 42 14q25 0 42 -18t17 -42q0 -34 -33 -54l-58 -36q11 -28 11 -61q0 -83 -65.5 -125t-157.5 -42q-61 0 -109 17q-8 -16 -8 -25q0 -39 64 -43q18 -1 105 -4q118 -3 168 -35q64 -40 64 -124q0 -75 -63 -126
q-78 -61 -230 -61q-114 0 -182.5 44t-68.5 115q0 40 29.5 71t71.5 39q-34 10 -55 36.5t-21 60.5q0 58 55 94q-45 42 -45 108zM141 -47q0 -32 36 -51.5t92 -19.5q62 0 104 18t42 54q0 39 -50 51q-40 9 -117 9q-107 0 -107 -61zM273 276q38 0 65.5 18t27.5 52q0 35 -27.5 53
t-65.5 18t-65.5 -18t-27.5 -53q0 -34 27.5 -52t65.5 -18z" />
    <glyph glyph-name="h" unicode="h" horiz-adv-x="641" 
d="M557 94h24q19 0 33 -14t14 -33t-14 -33t-33 -14h-190q-19 0 -33 14t-14 33t14 33t33 14h26v228q0 75 -72 75q-28 0 -60.5 -17.5t-53.5 -36.5v-249h35q20 0 33.5 -14t13.5 -33t-13.5 -33t-33.5 -14h-199q-19 0 -33 14t-14 33t14 33t33 14h24v512h-34q-19 0 -33 14t-14 33
t14 33t33 14h125q20 0 33.5 -14t13.5 -33v-208q32 31 75.5 50t82.5 19q94 0 132 -47t38 -110v-263z" />
    <glyph glyph-name="i" unicode="i" horiz-adv-x="337" 
d="M282 0h-208q-20 0 -33.5 14t-13.5 33t13.5 33t33.5 14h34v316h-34q-20 0 -33.5 14t-13.5 33t13.5 33t33.5 14h127q19 0 33 -14t14 -33v-363h34q20 0 33.5 -14t13.5 -33t-13.5 -33t-33.5 -14zM172 555q-36 0 -62.5 26t-26.5 61q0 36 26.5 62t62.5 26q37 0 63.5 -26.5
t26.5 -61.5t-26.5 -61t-63.5 -26z" />
    <glyph glyph-name="j" unicode="j" horiz-adv-x="300" 
d="M246 642q0 -35 -26.5 -61t-63.5 -26q-36 0 -62.5 26t-26.5 61q0 36 26.5 62t62.5 26q37 0 63.5 -26.5t26.5 -61.5zM232 457v-498q0 -100 -46.5 -146.5t-121.5 -46.5q-56 0 -71 42q-12 34 12 57q12 12 29 14q35 4 46.5 18.5t11.5 60.5v452h-34q-20 0 -33.5 14t-13.5 33
t13.5 33t33.5 14h127q19 0 33 -14t14 -33z" />
    <glyph glyph-name="k" unicode="k" horiz-adv-x="606" 
d="M255 0h-188q-19 0 -33 14t-14 33t14 33t33 14h24v512h-34q-19 0 -33 14t-14 33t14 33t33 14h127q20 0 33.5 -14t13.5 -33v-339h66l87 96h-45q-19 0 -33 14t-14 33t14 33t33 14h195q20 0 33.5 -14t13.5 -33t-13.5 -33t-33.5 -14h-16l-132 -136q44 -16 69 -56l76 -124h15
q20 0 33.5 -14t13.5 -33t-13.5 -33t-33.5 -14h-75q-51 0 -79 50l-62 112q-15 26 -33.5 36.5t-50.5 10.5h-15v-115h24q19 0 33 -14t14 -33t-14 -33t-33 -14z" />
    <glyph glyph-name="l" unicode="l" horiz-adv-x="324" 
d="M256 0h-188q-20 0 -33.5 14t-13.5 33t13.5 33t33.5 14h24v512h-34q-20 0 -33.5 14t-13.5 33t13.5 33t33.5 14h127q19 0 33 -14t14 -33v-559h24q20 0 33.5 -14t13.5 -33t-13.5 -33t-33.5 -14z" />
    <glyph glyph-name="m" unicode="m" horiz-adv-x="959" 
d="M557 94h14q19 0 33 -14t14 -33t-14 -33t-33 -14h-170q-19 0 -33 14t-14 33t14 33t33 14h16v228q0 75 -62 75q-28 0 -60.5 -17.5t-53.5 -36.5v-249h35q20 0 33.5 -14t13.5 -33t-13.5 -33t-33.5 -14h-199q-19 0 -33 14t-14 33t14 33t33 14h24v316h-24q-19 0 -33 14t-14 33
t14 33t33 14h115q20 0 33.5 -14t13.5 -33v-12q71 69 151 69q114 0 145 -82q85 82 168 82q94 0 132 -47t38 -110v-263h14q19 0 33 -14t14 -33t-14 -33t-33 -14h-170q-19 0 -33 14t-14 33t14 33t33 14h16v228q0 75 -62 75q-28 0 -60.5 -17.5t-53.5 -36.5v-249z" />
    <glyph glyph-name="n" unicode="n" horiz-adv-x="651" 
d="M567 94h24q19 0 33 -14t14 -33t-14 -33t-33 -14h-190q-19 0 -33 14t-14 33t14 33t33 14h26v228q0 75 -72 75q-28 0 -60.5 -17.5t-53.5 -36.5v-249h35q20 0 33.5 -14t13.5 -33t-13.5 -33t-33.5 -14h-199q-19 0 -33 14t-14 33t14 33t33 14h24v316h-24q-19 0 -33 14t-14 33
t14 33t33 14h115q20 0 33.5 -14t13.5 -33v-12q32 31 75.5 50t82.5 19q94 0 132 -47t38 -110v-263z" />
    <glyph glyph-name="o" unicode="o" horiz-adv-x="576" 
d="M34 252q0 128 71 195t183 67t183 -67t71 -195t-71 -195t-183 -67t-183 67t-71 195zM176 252q0 -73 31 -110t81 -37t81 37t31 110t-31 110t-81 37t-81 -37t-31 -110z" />
    <glyph glyph-name="p" unicode="p" horiz-adv-x="629" 
d="M367 -10q-93 0 -137 57v-153h54q20 0 33.5 -14t13.5 -33t-13.5 -33t-33.5 -14h-218q-20 0 -33.5 14t-13.5 33t13.5 33t33.5 14h24v516h-24q-20 0 -33.5 14t-13.5 33t13.5 33t33.5 14h117q19 0 33 -14t14 -33v-6q58 63 143 63q101 0 161.5 -71t60.5 -194
q0 -103 -59.5 -181t-168.5 -78zM340 399q-50 0 -80.5 -36.5t-30.5 -109.5t30.5 -110.5t80.5 -37.5q51 0 82 37.5t31 110.5t-31 109.5t-82 36.5z" />
    <glyph glyph-name="q" unicode="q" horiz-adv-x="606" 
d="M563 -200h-218q-19 0 -33 14t-14 33t14 33t33 14h54v153q-44 -57 -140 -57q-56 0 -100.5 23t-71 60.5t-40 82.5t-13.5 93q0 122 62.5 193.5t163.5 71.5q80 0 139 -63l19 26q21 29 50 35t50 -11.5t21 -51.5v-555h24q19 0 33 -14t14 -33t-14 -33t-33 -14zM289 399
q-51 0 -82 -36.5t-31 -109.5t31 -110.5t82 -37.5q50 0 80.5 37.5t30.5 110.5t-30.5 109.5t-80.5 36.5z" />
    <glyph glyph-name="r" unicode="r" horiz-adv-x="461" 
d="M239 414q57 97 135 97q35 0 56.5 -20.5t21.5 -52.5q0 -31 -19.5 -52.5t-48.5 -21.5q-8 0 -27.5 4t-34 1.5t-29.5 -16.5q-30 -28 -52 -57v-202h55q20 0 33.5 -14t13.5 -33t-13.5 -33t-33.5 -14h-219q-19 0 -33 14t-14 33t14 33t33 14h24v316h-24q-19 0 -33 14t-14 33
t14 33t33 14h115q20 0 33.5 -14t13.5 -33v-43z" />
    <glyph glyph-name="s" unicode="s" horiz-adv-x="508" 
d="M372 289q104 -33 104 -130q0 -73 -57 -121t-170 -48q-89 0 -155 18q-53 15 -51 66l3 65q1 26 18.5 40t40.5 14q22 0 37.5 -12.5t18.5 -36.5l5 -41q36 -9 74 -9q94 0 94 50q0 33 -59 43q-115 20 -156 41q-78 39 -78 130q0 67 56 111.5t162 44.5q72 0 131 -11
q57 -11 54 -71l-3 -60q-1 -22 -16.5 -34t-36.5 -12q-48 0 -54 39l-7 42q-38 6 -61 6q-88 0 -88 -46q0 -16 10.5 -26t19 -13t22.5 -6q7 -2 59 -13t83 -20z" />
    <glyph glyph-name="t" unicode="t" horiz-adv-x="397" 
d="M357 12q-39 -22 -108 -22q-160 0 -160 153v267h-38q-19 0 -33 14t-14 33t14 33t33 14h38v116q0 29 21 49.5t50 20.5q28 0 48.5 -20.5t20.5 -49.5v-116h99q20 0 33.5 -14t13.5 -33t-13.5 -33t-33.5 -14h-99v-237q0 -33 8.5 -49.5t37.5 -16.5q9 0 28 3.5t26 4.5
q23 2 40 -13t17 -41q0 -32 -29 -49z" />
    <glyph glyph-name="u" unicode="u" horiz-adv-x="625" 
d="M223 457v-278q0 -75 67 -75q46 0 109 57v249h-35q-20 0 -33.5 14t-13.5 33t13.5 33t33.5 14h129q19 0 33 -14t14 -33l-1 -363h14q19 0 33 -14t14 -33t-14 -33t-33 -14h-105q-20 0 -33.5 14t-13.5 33v12q-71 -69 -157 -69q-81 0 -121 48.5t-40 108.5v263h-24q-19 0 -33 14
t-14 33t14 33t33 14h117q20 0 33.5 -14t13.5 -33z" />
    <glyph glyph-name="v" unicode="v" horiz-adv-x="572" 
d="M368 504h154q20 0 33.5 -14t13.5 -33t-13.5 -33t-33.5 -14h-9l-108 -300q-23 -62 -51 -91t-68 -29t-68 28.5t-51 91.5l-108 300h-9q-20 0 -33.5 14t-13.5 33t13.5 33t33.5 14h157q19 0 33 -14t14 -33t-14 -33t-33 -14h-5l87 -269l84 269h-5q-20 0 -33.5 14t-13.5 33
t13.5 33t33.5 14z" />
    <glyph glyph-name="w" unicode="w" horiz-adv-x="861" 
d="M430 314l-52 -183q-19 -68 -46.5 -104.5t-74.5 -36.5q-86 0 -114 120l-78 300h-12q-19 0 -33 14t-14 33t14 33t33 14h152q19 0 33 -14t14 -33t-14 -33t-33 -14h-7l63 -279l82 279h-2q-19 0 -33 14t-14 33t14 33t33 14h179q20 0 33.5 -14t13.5 -33t-13.5 -33t-33.5 -14h-2
l81 -279l63 279h-6q-20 0 -33.5 14t-13.5 33t13.5 33t33.5 14h152q20 0 33.5 -14t13.5 -33t-13.5 -33t-33.5 -14h-12l-78 -300q-28 -120 -114 -120q-47 0 -74.5 36.5t-46.5 104.5z" />
    <glyph glyph-name="x" unicode="x" horiz-adv-x="565" 
d="M61 94h21l119 169l-117 147h-14q-20 0 -33.5 14t-13.5 33t13.5 33t33.5 14h157q19 0 33 -14t14 -33t-12.5 -32t-29.5 -15l68 -85l52 85h-5q-19 0 -33 14t-14 33t14 33t33 14h147q20 0 33.5 -14t13.5 -33t-13.5 -33t-33.5 -14h-19l-110 -165l122 -151h17q20 0 33.5 -14
t13.5 -33t-13.5 -33t-33.5 -14h-167q-19 0 -33 14t-14 33t13 32.5t32 14.5l-71 90l-58 -90h12q20 0 33.5 -14t13.5 -33t-13.5 -33t-33.5 -14h-157q-19 0 -33 14t-14 33t14 33t33 14z" />
    <glyph glyph-name="y" unicode="y" horiz-adv-x="584" 
d="M4 457q0 19 14 33t33 14h187q20 0 33.5 -14t13.5 -33t-13.5 -33t-33.5 -14h-25l87 -269l84 269h-10q-20 0 -33.5 14t-13.5 33t13.5 33t33.5 14h159q19 0 33 -14t14 -33t-14 -33t-33 -14h-9l-145 -409q-44 -123 -85 -164q-56 -57 -142 -57q-51 0 -75.5 20t-24.5 49
t20.5 43t54.5 8q11 -2 31 -2q24 0 41 14.5t25 34.5l6 15l-160 448h-19q-19 0 -33 14t-14 33z" />
    <glyph glyph-name="z" unicode="z" horiz-adv-x="540" 
d="M116 0q-39 0 -59 24t-18 53.5t20 47.5l265 272h-155l-5 -63q-2 -32 -31 -44.5t-56.5 1t-27.5 45.5v121q0 19 13.5 33t33.5 14h316q40 0 61 -22t18.5 -51t-24.5 -52l-265 -272h171l13 78q7 32 36 42t55 -6t24 -48l-5 -126q0 -19 -14.5 -33t-34.5 -14h-331z" />
    <glyph glyph-name="braceleft" unicode="{" horiz-adv-x="395" 
d="M108 726q0 21 15 35.5t35 14.5h168q20 0 35 -14.5t15 -35.5t-15 -36t-35 -15h-80v-214q0 -93 -76 -112q76 -16 76 -110v-279h80q20 0 35 -15t15 -36t-15 -35.5t-35 -14.5h-168q-20 0 -35 14.5t-15 35.5v350q0 37 -39 37h-7q-22 0 -38.5 16t-16.5 38t16.5 38t38.5 16h7
q39 0 39 37v285z" />
    <glyph glyph-name="bar" unicode="|" horiz-adv-x="263" 
d="M76 -81v856q0 22 16.5 38.5t39.5 16.5t39 -16.5t16 -38.5v-856q0 -23 -16 -39t-39 -16t-39.5 16t-16.5 39z" />
    <glyph glyph-name="braceright" unicode="}" horiz-adv-x="395" 
d="M287 -91q0 -21 -15 -35.5t-35 -14.5h-168q-20 0 -35 14.5t-15 35.5t15 36t35 15h80v279q0 94 76 110q-76 19 -76 112v214h-80q-20 0 -35 15t-15 36t15 35.5t35 14.5h168q20 0 35 -14.5t15 -35.5v-285q0 -37 39 -37h7q22 0 38.5 -16t16.5 -38t-16.5 -38t-38.5 -16h-7
q-39 0 -39 -37v-350z" />
    <glyph glyph-name="asciitilde" unicode="~" 
d="M169 453q38 0 139.5 -37.5t108.5 -37.5q23 0 23 27q0 22 17 35t40 13q26 0 45.5 -17.5t19.5 -49.5v-6q0 -65 -35.5 -99t-91.5 -34q-38 0 -139.5 37.5t-108.5 37.5q-24 0 -24 -28q0 -21 -17.5 -34t-39.5 -13q-26 0 -45.5 17.5t-19.5 49.5v5q0 66 35.5 100t92.5 34z" />
    <glyph glyph-name="exclamdown" unicode="&#xa1;" horiz-adv-x="278" 
d="M50 -120l28 319q1 23 19 38t42 15q25 0 43 -15t19 -38l28 -319v-8q0 -42 -26.5 -65t-63.5 -23t-63 23t-26 65v8zM138 514q42 0 71.5 -29.5t29.5 -71.5t-29.5 -71.5t-71.5 -29.5t-71.5 29.5t-29.5 71.5t29.5 71.5t71.5 29.5z" />
    <glyph glyph-name="cent" unicode="&#xa2;" horiz-adv-x="538" 
d="M209 -81l7 80q-82 19 -130.5 83.5t-48.5 169.5q0 123 62 192.5t161 69.5h1l8 85q2 17 15.5 28.5t30.5 9.5t28.5 -15t10.5 -30l-10 -107q13 -9 23 -21l5 10q21 40 55 40q23 0 38 -13t15 -39v-125q0 -21 -17 -37.5t-41 -16.5q-45 0 -69 47l-5 9q-11 20 -14 24l-23 -255
q33 3 70.5 20t56.5 17h2q27 0 41 -17t14 -40q0 -36 -45 -62q-59 -33 -149 -36l-7 -78q-1 -17 -14.5 -29t-30.5 -10q-18 2 -29.5 15.5t-10.5 30.5zM178 255q0 -92 49 -127l24 274q-73 -17 -73 -147z" />
    <glyph glyph-name="sterling" unicode="&#xa3;" horiz-adv-x="622" 
d="M94 384q-20 0 -34 15t-14 35q0 21 14 35t34 14h46q-1 6 -1 18q1 85 58.5 147t171.5 62q47 0 100.5 -11t76.5 -31q22 -19 22 -46q0 -23 -16 -40t-43 -17q-14 0 -32 6q-42 15 -87 15q-102 0 -102 -99v-4h158q20 0 34.5 -14.5t14.5 -35.5q0 -20 -14.5 -34.5t-34.5 -14.5
h-150q1 -10 4.5 -32.5t4.5 -33.5h141q20 0 34.5 -14t14.5 -36q0 -20 -14.5 -34.5t-34.5 -14.5h-140q0 -1 -1 -14t-1 -16.5t-2 -14.5t-4 -17t-6 -15t-10 -16h242q31 0 48 -18.5t17 -44.5q0 -25 -17.5 -44t-47.5 -19h-421q-27 0 -42 17t-15 40t15 39.5t42 16.5h6q25 0 41 6.5
t22.5 21t8.5 28t2 36.5q0 2 -0.5 6.5t-0.5 7.5h-88q-20 0 -34 15t-14 35q0 21 14 35t34 14h75l-14 66h-61z" />
    <glyph glyph-name="yen" unicode="&#xa5;" horiz-adv-x="773" 
d="M123 384q-20 0 -34 15t-14 35q0 21 14 35t34 14h53l-66 116h-30q-20 0 -35 15t-15 36t15 35.5t35 14.5h220q20 0 35 -14.5t15 -35.5t-15 -36t-35 -15h-40l129 -235h7l131 235h-42q-20 0 -35 15t-15 36t15 35.5t35 14.5h208q20 0 35 -14.5t15 -35.5t-15 -36t-35 -15h-30
l-71 -116h57q21 0 35 -14.5t14 -35.5q0 -20 -14.5 -34.5t-34.5 -14.5h-117l-40 -66h157q21 0 35 -14t14 -36q0 -20 -14.5 -34.5t-34.5 -14.5h-195v-118h60q20 0 35 -15t15 -36t-15 -35.5t-35 -14.5h-268q-20 0 -35 14.5t-15 35.5t15 36t35 15h60v118h-183q-20 0 -34 15
t-14 35q0 21 14 35t34 14h147l-37 66h-110z" />
    <glyph glyph-name="brokenbar" unicode="&#xa6;" horiz-adv-x="257" 
d="M73 419v356q0 22 16.5 38.5t39.5 16.5t39 -16.5t16 -38.5v-356q0 -23 -16 -39t-39 -16t-39.5 16t-16.5 39zM73 -141v372q0 22 16.5 38.5t39.5 16.5t39 -16.5t16 -38.5v-372q0 -23 -16 -39t-39 -16t-39.5 16t-16.5 39z" />
    <glyph glyph-name="section" unicode="&#xa7;" horiz-adv-x="675" 
d="M31 326q0 92 89 147q12 -13 51.5 -30.5t57.5 -19.5q-38 -35 -38 -71q0 -21 15.5 -34.5t33 -19t50.5 -12.5q4 -1 7.5 -1.5t6.5 -1.5q105 -26 136 -38q135 -50 135 -166q0 -85 -72.5 -136t-191.5 -51q-86 0 -166 20q-58 16 -54 64l6 75q2 28 19 45.5t47 17.5q28 0 46.5 -17
t20.5 -45l2 -40q23 -4 68 -4q53 0 83 16.5t30 42.5q0 31 -22.5 44.5t-75.5 25.5q-75 18 -89 21q-195 44 -195 168zM644 377q0 -47 -25 -85t-64 -61q-12 12 -51.5 29.5t-57.5 19.5q38 36 38 72q0 20 -17 34.5t-32 19t-52 12.5l-12 3q-100 23 -136 37q-135 50 -135 166
q0 85 72.5 136t191.5 51q86 0 166 -20q29 -7 42.5 -24.5t11.5 -39.5l-6 -74q-2 -28 -19 -45.5t-47 -17.5q-29 0 -47.5 17t-19.5 45l-3 38q-28 5 -67 5q-53 0 -83 -16.5t-30 -42.5q0 -30 22.5 -44t75.5 -26q72 -17 90 -21q194 -42 194 -168z" />
    <glyph glyph-name="dieresis" unicode="&#xa8;" horiz-adv-x="454" 
d="M50 646q0 34 23 57t56 23q34 0 57 -23t23 -57t-23 -57t-57 -23q-33 0 -56 23t-23 57zM245 646q0 34 23 57t57 23q33 0 56 -23t23 -57t-23 -57t-56 -23q-34 0 -57 23t-23 57z" />
    <glyph glyph-name="copyright" unicode="&#xa9;" horiz-adv-x="841" 
d="M43 350q0 91 31.5 163.5t85 117.5t119.5 68.5t140 23.5t140.5 -23.5t120.5 -68.5t86 -117.5t32 -163.5q0 -90 -32 -163t-86 -118t-120.5 -68.5t-140.5 -23.5q-73 0 -140 23.5t-120 68.5t-84.5 117.5t-31.5 163.5zM419 42q130 0 213 79.5t83 228.5t-83 228.5t-213 79.5
t-213 -79.5t-83 -228.5t83 -228.5t213 -79.5zM578 212q0 -20 -18 -32q-55 -40 -138 -40q-78 0 -131 52.5t-53 151.5q0 100 47 156.5t128 56.5q60 0 87 -36l4 14q6 21 33 21q16 0 26.5 -9.5t10.5 -27.5v-100q0 -15 -10 -24.5t-24 -9.5q-31 0 -40 27q-12 40 -27.5 58t-50.5 18
q-91 0 -91 -143q0 -128 106 -128q28 0 60.5 16t43.5 16q15 0 26 -11t11 -26z" />
    <glyph glyph-name="ordfeminine" unicode="&#xaa;" horiz-adv-x="466" 
d="M272 544v25q0 55 -60 55q-27 0 -60 -13l-8 -26q-9 -32 -42 -32q-18 0 -31 11.5t-13 34.5v72q0 18 12.5 29.5t30.5 11.5q26 0 38 -24l1 -2q48 24 98 24q66 0 105 -32t39 -101v-165q0 -28 17 -28h4q34 0 34 -38q0 -20 -17.5 -35t-58.5 -15q-54 0 -77 49
q-14 -18 -44.5 -33.5t-68.5 -15.5q-61 0 -96.5 36t-35.5 84q0 73 58.5 100.5t157.5 27.5h17zM272 470q-75 0 -100 -13q-21 -11 -21 -34q0 -40 48 -40q24 0 45.5 11.5t27.5 21.5v54z" />
    <glyph glyph-name="guillemotleft" unicode="&#xab;" horiz-adv-x="650" 
d="M207 253v-1l119 -146q29 -39 8.5 -77.5t-61.5 -38.5q-37 0 -63 32l-180 217q-6 7 -6 14t6 13l180 216q26 32 63 32q41 0 61.5 -38.5t-8.5 -77.5zM471 253v-1l119 -146q29 -39 8.5 -77.5t-61.5 -38.5q-37 0 -63 32l-180 217q-6 8 -6 14q0 7 6 13l180 216q26 32 63 32
q41 0 61.5 -38.5t-8.5 -77.5z" />
    <glyph glyph-name="logicalnot" unicode="&#xac;" horiz-adv-x="3800" 
d="M817 435h-48q-13 0 -21.5 8.5t-8.5 21.5t8.5 21.5t21.5 8.5h97q13 0 21.5 -8.5t8.5 -21.5v-50q97 90 187 90q57 0 89.5 -26.5t42.5 -67.5q94 94 198 94q42 0 71.5 -14t43 -38t18.5 -45.5t5 -45.5v-302h52q13 0 21.5 -8.5t8.5 -21.5t-8.5 -21.5t-21.5 -8.5h-189
q-13 0 -21.5 8.5t-8.5 21.5t8.5 21.5t21.5 8.5h56v296q0 37 -19.5 58t-58.5 21q-77 0 -168 -85v-290h52q13 0 21.5 -8.5t8.5 -21.5t-8.5 -21.5t-21.5 -8.5h-189q-13 0 -21.5 8.5t-8.5 21.5t8.5 21.5t21.5 8.5h56v296q0 37 -19.5 58t-58.5 21q-77 0 -167 -85v-290h56
q13 0 21.5 -8.5t8.5 -21.5t-8.5 -21.5t-21.5 -8.5h-455q-13 0 -21.5 8.5t-8.5 21.5t8.5 21.5t21.5 8.5h68l-63 217h-237l-61 -217h68q13 0 21.5 -8.5t8.5 -21.5t-8.5 -21.5t-21.5 -8.5h-216q-13 0 -21.5 8.5t-8.5 21.5t8.5 21.5t21.5 8.5h64l177 580h-85q-13 0 -21.5 8.5
t-8.5 21.5t8.5 21.5t21.5 8.5h217q31 0 39 -30l187 -610h160v375zM1829 465v-50q56 90 169 90q98 0 158.5 -69t60.5 -186q0 -116 -60 -188t-162 -72q-112 0 -164 85v-235h72q13 0 21.5 -8.5t8.5 -21.5t-8.5 -21.5t-21.5 -8.5h-209q-13 0 -21.5 8.5t-8.5 21.5t8.5 21.5
t21.5 8.5h56v595h-48q-13 0 -21.5 8.5t-8.5 21.5t8.5 21.5t21.5 8.5h97q13 0 21.5 -8.5t8.5 -21.5zM1983 56q67 0 110 49t43 142t-43 142t-110 49t-110 -49t-43 -142t43 -142t110 -49zM2451 690v-630h66q13 0 21.5 -8.5t8.5 -21.5t-8.5 -21.5t-21.5 -8.5h-213
q-13 0 -21.5 8.5t-8.5 21.5t8.5 21.5t21.5 8.5h66v600h-66q-13 0 -21.5 8.5t-8.5 21.5t8.5 21.5t21.5 8.5h117q13 0 21.5 -8.5t8.5 -21.5zM2774 465v-405h66q13 0 21.5 -8.5t8.5 -21.5t-8.5 -21.5t-21.5 -8.5h-213q-13 0 -21.5 8.5t-8.5 21.5t8.5 21.5t21.5 8.5h66v375h-66
q-13 0 -21.5 8.5t-8.5 21.5t8.5 21.5t21.5 8.5h117q13 0 21.5 -8.5t8.5 -21.5zM484 342l-83 298h-29l-84 -298h196zM2661 642q0 28 19.5 48t47.5 20t48 -20t20 -48t-20 -47.5t-48 -19.5t-47.5 19.5t-19.5 47.5zM3570 495h174q13 0 21.5 -8.5t8.5 -21.5t-8.5 -21.5
t-21.5 -8.5h-37l-182 -434q-17 -41 -26.5 -61.5t-26.5 -51.5t-32.5 -47t-37.5 -33t-50 -24t-62 -7q-40 0 -69 9q-21 7 -25.5 25t7 32t29.5 11q48 -8 55 -8q60 0 95 40q26 30 50 86l10 24l-175 439h-170v-375h76q13 0 21.5 -8.5t8.5 -21.5t-8.5 -21.5t-21.5 -8.5h-223
q-13 0 -21.5 8.5t-8.5 21.5t8.5 21.5t21.5 8.5h66v375h-66q-13 0 -21.5 8.5t-8.5 21.5t8.5 21.5t21.5 8.5h66v70q0 80 47.5 126t126.5 46q57 0 107 -18q22 -8 26 -28t-11 -33t-39 -5q-45 15 -78 15q-98 0 -98 -110v-63h307q13 0 21.5 -8.5t8.5 -21.5t-8.5 -21.5t-21.5 -8.5
h-53l136 -351l140 351h-57q-13 0 -21.5 8.5t-8.5 21.5t8.5 21.5t21.5 8.5z" />
    <glyph glyph-name="registered" unicode="&#xae;" horiz-adv-x="841" 
d="M43 350q0 91 31.5 163.5t85 117.5t119.5 68.5t140 23.5t140.5 -23.5t120.5 -68.5t86 -117.5t32 -163.5q0 -90 -32 -163t-86 -118t-120.5 -68.5t-140.5 -23.5q-73 0 -140 23.5t-120 68.5t-84.5 117.5t-31.5 163.5zM419 42q130 0 213 79.5t83 228.5t-83 228.5t-213 79.5
t-213 -79.5t-83 -228.5t83 -228.5t213 -79.5zM366 320v-104h34q11 0 19.5 -9t8.5 -21q0 -11 -8.5 -19.5t-19.5 -8.5h-142q-12 0 -20.5 8.5t-8.5 19.5q0 12 8.5 21t20.5 9h23v283h-23q-12 0 -20.5 8.5t-8.5 20.5t8.5 20.5t20.5 8.5h176q68 0 107 -28.5t39 -83.5
q0 -38 -27 -65.5t-72 -32.5q33 -7 56 -44l53 -87h11q12 0 20.5 -9t8.5 -21q0 -11 -8.5 -19.5t-20.5 -8.5h-50q-25 0 -40 28l-53 97q-20 37 -63 37h-29zM366 384h53q35 0 55 15t20 40q0 26 -17.5 39t-45.5 13h-65v-107z" />
    <glyph glyph-name="macron" unicode="&#xaf;" horiz-adv-x="468" 
d="M351 571h-235q-27 0 -46.5 19t-19.5 47t19.5 47.5t46.5 19.5h235q28 0 47.5 -19.5t19.5 -47.5t-19.5 -47t-47.5 -19z" />
    <glyph glyph-name="degree" unicode="&#xb0;" horiz-adv-x="427" 
d="M35 528q0 84 49 128t131 44q80 0 128.5 -44t48.5 -128t-48.5 -128.5t-128.5 -44.5q-82 0 -131 44.5t-49 128.5zM152 528q0 -83 63 -83q64 0 64 83q0 41 -17 61.5t-47 20.5q-63 0 -63 -82z" />
    <glyph glyph-name="plusminus" unicode="&#xb1;" 
d="M108 380q-28 0 -48 20.5t-20 49.5t19.5 49t48.5 20h121v123q0 28 21 48t51 20q29 0 50 -20t21 -48v-123h120q29 0 48.5 -20t19.5 -50q0 -29 -20 -49t-48 -20h-120v-122q0 -28 -21.5 -48t-50.5 -20t-50 20t-21 48v122h-121zM108 0q-28 0 -48 20.5t-20 49.5t19.5 49
t48.5 20h384q29 0 48.5 -20t19.5 -50q0 -29 -20 -49t-48 -20h-384z" />
    <glyph glyph-name="twosuperior" unicode="&#xb2;" horiz-adv-x="463" 
d="M90 387l126 98q21 17 30 24.5t19.5 23.5t10.5 32q0 19 -14 30.5t-35 11.5q-19 0 -42 -10l-7 -51q-3 -24 -19 -37t-39 -13t-39 15t-16 38v104q0 29 16.5 43t39.5 14q30 0 45 -24q40 24 88 24q66 0 108 -38.5t42 -97.5q0 -47 -26.5 -84.5t-82.5 -79.5l-74 -55h138
q21 0 38 -16.5t17 -37.5t-17 -37t-38 -16h-230q-34 0 -55 20.5t-21 50.5q0 39 37 68z" />
    <glyph glyph-name="threesuperior" unicode="&#xb3;" horiz-adv-x="451" 
d="M180 238q-57 0 -95 11q-20 6 -32 21t-12 33q0 21 16.5 38.5t40.5 17.5q3 0 37 -5.5t50 -5.5q36 0 58 13.5t22 35.5q0 36 -48 36q-8 0 -29 -4t-25 -4q-21 0 -36.5 16.5t-15.5 37.5q0 28 26 45l98 65h-131q-23 0 -40.5 16.5t-17.5 38.5q0 23 17.5 39.5t40.5 16.5h210
q34 0 54 -19t20 -44q0 -37 -37 -63l-79 -55q53 -6 88 -37.5t35 -81.5q0 -78 -61.5 -120t-153.5 -42z" />
    <glyph glyph-name="acute" unicode="&#xb4;" horiz-adv-x="345" 
d="M264 661l-112 -94q-21 -18 -43 -18q-24 0 -41.5 17.5t-17.5 40.5q0 18 18 41l90 114q25 33 60 33q31 0 54 -22.5t23 -52.5q0 -32 -31 -59z" />
    <glyph glyph-name="mu" unicode="&#xb5;" horiz-adv-x="661" 
d="M242 457v-278q0 -75 67 -75q46 0 109 57v249h-35q-19 0 -33 14t-14 33t14 33t33 14h129q20 0 33.5 -14t13.5 -33l-1 -363h14q20 0 33.5 -14t13.5 -33t-13.5 -33t-33.5 -14h-105q-19 0 -33 14t-14 33v12q-71 -69 -157 -69q-32 0 -60 10v-170q0 -20 -14.5 -35t-35.5 -15
t-36 15t-15 35v580h-24q-20 0 -33.5 14t-13.5 33t13.5 33t33.5 14h117q19 0 33 -14t14 -33z" />
    <glyph glyph-name="paragraph" unicode="&#xb6;" horiz-adv-x="806" 
d="M396 0q-66 0 -127 21.5t-112 63t-81.5 110.5t-30.5 155q0 87 30 156t80 110.5t110 62.5t126 21h327q20 0 35 -14.5t15 -35.5t-15 -36t-35 -15h-60v-498h60q20 0 35 -15t15 -36t-15 -35.5t-35 -14.5h-322z" />
    <glyph glyph-name="periodcentered" unicode="&#xb7;" horiz-adv-x="284" 
d="M41 358q0 42 29.5 71.5t71.5 29.5t71.5 -29.5t29.5 -71.5t-29.5 -71.5t-71.5 -29.5t-71.5 29.5t-29.5 71.5z" />
    <glyph glyph-name="cedilla" unicode="&#xb8;" horiz-adv-x="372" 
d="M225 16l-15 -45q51 -5 81 -33t31 -74q0 -53 -42 -85t-101 -32q-62 0 -97 16q-32 14 -32 41q0 16 11.5 27.5t27.5 11.5q12 0 34.5 -6t33.5 -6q51 0 51 34q0 39 -77 39q-13 0 -20 10.5t0 29.5l43 91z" />
    <glyph glyph-name="onesuperior" unicode="&#xb9;" horiz-adv-x="388" 
d="M270 657v-302h42q22 0 37.5 -16t15.5 -38t-15.5 -37.5t-37.5 -15.5h-210q-20 0 -36 16t-16 37q0 22 16 38t36 16h43v213l-34 -11q-32 -11 -53.5 10t-17.5 51.5t33 41.5l117 45q30 11 55 -3.5t25 -44.5z" />
    <glyph glyph-name="ordmasculine" unicode="&#xba;" horiz-adv-x="455" 
d="M34 503q0 101 54.5 154t138.5 53t139 -53t55 -154t-55 -154t-139 -53t-138.5 53t-54.5 154zM147 503q0 -55 22 -82.5t58 -27.5t58 27.5t22 82.5t-22 82.5t-58 27.5t-58 -27.5t-22 -82.5z" />
    <glyph glyph-name="guillemotright" unicode="&#xbb;" horiz-adv-x="650" 
d="M442 253l-119 145q-29 39 -8.5 77.5t61.5 38.5q37 0 63 -32l180 -216q6 -6 6 -13t-6 -14l-180 -217q-26 -32 -63 -32q-41 0 -61.5 38.5t8.5 77.5l119 146v1zM178 253l-119 145q-29 39 -8.5 77.5t61.5 38.5q37 0 63 -32l180 -216q6 -6 6 -13t-6 -14l-180 -217
q-26 -32 -63 -32q-41 0 -61.5 38.5t8.5 77.5l119 146v1z" />
    <glyph glyph-name="onequarter" unicode="&#xbc;" horiz-adv-x="1101" 
d="M248 81l556 612q14 16 37 17t40 -14q16 -14 17 -36.5t-13 -38.5l-556 -613q-14 -17 -36.5 -18t-38.5 14q-17 15 -18.5 38t12.5 39zM1002 53q0 -26 -19 -44.5t-45 -18.5t-45 19t-19 44v37h-135q-40 0 -61.5 19.5t-21.5 50.5q0 22 13 50l107 212q21 40 59 40q23 0 39 -15
t16 -40q0 -19 -13 -44l-89 -169h86v52q1 25 20 42.5t44 17.5t43.5 -17.5t20.5 -42.5v-52h17q24 0 39.5 -14.5t15.5 -37.5q0 -24 -15.5 -38t-39.5 -14h-17v-37zM270 655v-302h42q22 0 37.5 -16t15.5 -38t-15.5 -37.5t-37.5 -15.5h-210q-20 0 -36 16t-16 37q0 22 16 38t36 16
h43v213l-34 -11q-32 -11 -53.5 10t-17.5 51.5t33 41.5l117 45q30 11 55 -3.5t25 -44.5z" />
    <glyph glyph-name="onehalf" unicode="&#xbd;" horiz-adv-x="1146" 
d="M790 120l126 98q21 17 30 24.5t19.5 23.5t10.5 32q0 19 -14 30.5t-35 11.5q-19 0 -42 -10l-7 -51q-3 -24 -19 -37t-39 -13t-39 15t-16 38v104q0 29 16.5 43t39.5 14q30 0 45 -24q40 24 88 24q66 0 108 -38.5t42 -97.5q0 -47 -26.5 -84.5t-82.5 -79.5l-74 -55h138
q21 0 38 -16.5t17 -37.5t-17 -37t-38 -16h-230q-34 0 -55 20.5t-21 50.5q0 39 37 68zM241 81l556 612q14 16 37 17t40 -14q16 -14 17 -36.5t-13 -38.5l-556 -613q-14 -17 -36.5 -18t-38.5 14q-17 15 -18.5 38t12.5 39zM264 655v-302h42q22 0 37.5 -16t15.5 -38t-15.5 -37.5
t-37.5 -15.5h-210q-20 0 -36 16t-16 37q0 22 16 38t36 16h43v213l-34 -11q-32 -11 -53.5 10t-17.5 51.5t33 41.5l117 45q30 11 55 -3.5t25 -44.5z" />
    <glyph glyph-name="threequarters" unicode="&#xbe;" horiz-adv-x="1062" 
d="M182 238q-57 0 -95 11q-20 6 -32 21t-12 33q0 21 16.5 38.5t40.5 17.5q3 0 37 -5.5t50 -5.5q36 0 58 13.5t22 35.5q0 36 -48 36q-8 0 -29 -4t-25 -4q-21 0 -36.5 16.5t-15.5 37.5q0 28 26 45l98 65h-131q-23 0 -40.5 16.5t-17.5 38.5q0 23 17.5 39.5t40.5 16.5h210
q34 0 54 -19t20 -44q0 -37 -37 -63l-79 -55q53 -6 88 -37.5t35 -81.5q0 -78 -61.5 -120t-153.5 -42zM209 81l556 612q14 16 37 17t40 -14q16 -14 17 -36.5t-13 -38.5l-556 -613q-14 -17 -36.5 -18t-38.5 14q-17 15 -18.5 38t12.5 39zM963 53q0 -26 -19 -44.5t-45 -18.5
t-45 19t-19 44v37h-135q-40 0 -61.5 19.5t-21.5 50.5q0 22 13 50l107 212q21 40 59 40q23 0 39 -15t16 -40q0 -19 -13 -44l-89 -169h86v52q1 25 20 42.5t44 17.5t43.5 -17.5t20.5 -42.5v-52h17q24 0 39.5 -14.5t15.5 -37.5q0 -24 -15.5 -38t-39.5 -14h-17v-37z" />
    <glyph glyph-name="questiondown" unicode="&#xbf;" horiz-adv-x="468" 
d="M176 -24q0 -61 67 -61q36 0 65 13l6 66q2 27 19.5 42t42.5 15q24 0 41 -16.5t17 -42.5v-133q0 -32 -17.5 -48.5t-42.5 -16.5q-31 0 -47 29q-62 -29 -118 -29q-86 0 -135.5 47.5t-49.5 112.5q0 33 8.5 59.5t32.5 54.5t36.5 40.5t50.5 46.5q22 21 22 48v5q0 27 20.5 43
t48.5 16t48.5 -18t20.5 -52v-6q0 -27 -14 -54t-34 -48t-40 -40t-34 -38t-14 -35zM237 514q42 0 71.5 -29.5t29.5 -71.5t-29.5 -71.5t-71.5 -29.5t-71.5 29.5t-29.5 71.5t29.5 71.5t71.5 29.5z" />
    <glyph glyph-name="Agrave" unicode="&#xc0;" horiz-adv-x="734" 
d="M178 599q-20 0 -35 15t-15 36t15 35.5t35 14.5h238q53 0 69 -50l172 -549h30q20 0 35 -15t15 -36t-15 -35.5t-35 -14.5h-240q-20 0 -35 14.5t-15 35.5t15 36t35 15h58l-39 135h-207l-39 -135h62q20 0 35 -15t15 -36t-15 -35.5t-35 -14.5h-228q-20 0 -35 14.5t-15 35.5
t15 36t35 15h30l161 498h-67zM362 585l-71 -241h144l-68 241h-5zM216 858q-31 27 -31 59q0 30 23 52.5t54 22.5q35 0 60 -33l90 -114q18 -23 18 -41q0 -23 -17.5 -40.5t-41.5 -17.5q-22 0 -43 18z" />
    <glyph glyph-name="Aacute" unicode="&#xc1;" horiz-adv-x="734" 
d="M178 599q-20 0 -35 15t-15 36t15 35.5t35 14.5h238q53 0 69 -50l172 -549h30q20 0 35 -15t15 -36t-15 -35.5t-35 -14.5h-240q-20 0 -35 14.5t-15 35.5t15 36t35 15h58l-39 135h-207l-39 -135h62q20 0 35 -15t15 -36t-15 -35.5t-35 -14.5h-228q-20 0 -35 14.5t-15 35.5
t15 36t35 15h30l161 498h-67zM362 585l-71 -241h144l-68 241h-5zM485 858l-112 -94q-21 -18 -43 -18q-24 0 -41.5 17.5t-17.5 40.5q0 18 18 41l90 114q25 33 60 33q31 0 54 -22.5t23 -52.5q0 -32 -31 -59z" />
    <glyph glyph-name="Acircumflex" unicode="&#xc2;" horiz-adv-x="734" 
d="M178 599q-20 0 -35 15t-15 36t15 35.5t35 14.5h238q53 0 69 -50l172 -549h30q20 0 35 -15t15 -36t-15 -35.5t-35 -14.5h-240q-20 0 -35 14.5t-15 35.5t15 36t35 15h58l-39 135h-207l-39 -135h62q20 0 35 -15t15 -36t-15 -35.5t-35 -14.5h-228q-20 0 -35 14.5t-15 35.5
t15 36t35 15h30l161 498h-67zM362 585l-71 -241h144l-68 241h-5zM349 841l-93 -74q-16 -13 -38 -13q-21 0 -37 16t-16 37q0 19 18 37l120 124q20 20 46.5 20.5t47.5 -20.5l120 -124q18 -18 18 -37q0 -21 -16 -37t-37 -16q-22 0 -38 13l-93 74h-2z" />
    <glyph glyph-name="Atilde" unicode="&#xc3;" horiz-adv-x="734" 
d="M178 599q-20 0 -35 15t-15 36t15 35.5t35 14.5h238q53 0 69 -50l172 -549h30q20 0 35 -15t15 -36t-15 -35.5t-35 -14.5h-240q-20 0 -35 14.5t-15 35.5t15 36t35 15h58l-39 135h-207l-39 -135h62q20 0 35 -15t15 -36t-15 -35.5t-35 -14.5h-228q-20 0 -35 14.5t-15 35.5
t15 36t35 15h30l161 498h-67zM362 585l-71 -241h144l-68 241h-5zM543 865q0 -49 -31 -77t-73 -28q-25 0 -84 25.5t-64 25.5q-15 0 -17 -17q-2 -16 -17 -26.5t-35 -10.5q-23 0 -40.5 16t-17.5 47v4q0 49 31 77t73 28q26 0 85 -25.5t62 -25.5q15 0 18 17q4 16 18 26.5t33 10.5
q23 0 41 -16t18 -47v-4z" />
    <glyph glyph-name="Adieresis" unicode="&#xc4;" horiz-adv-x="734" 
d="M178 599q-20 0 -35 15t-15 36t15 35.5t35 14.5h238q53 0 69 -50l172 -549h30q20 0 35 -15t15 -36t-15 -35.5t-35 -14.5h-240q-20 0 -35 14.5t-15 35.5t15 36t35 15h58l-39 135h-207l-39 -135h62q20 0 35 -15t15 -36t-15 -35.5t-35 -14.5h-228q-20 0 -35 14.5t-15 35.5
t15 36t35 15h30l161 498h-67zM362 585l-71 -241h144l-68 241h-5zM178 843q0 34 23 57t56 23q34 0 57 -23t23 -57t-23 -57t-57 -23q-33 0 -56 23t-23 57zM373 843q0 34 23 57t57 23q33 0 56 -23t23 -57t-23 -57t-56 -23q-34 0 -57 23t-23 57z" />
    <glyph glyph-name="Aring" unicode="&#xc5;" horiz-adv-x="734" 
d="M362 960q80 0 132 -43.5t52 -117.5q0 -86 -69 -130l8 -19l172 -549h30q20 0 35 -15t15 -36t-15 -35.5t-35 -14.5h-240q-20 0 -35 14.5t-15 35.5t15 36t35 15h58l-39 135h-207l-39 -135h62q20 0 35 -15t15 -36t-15 -35.5t-35 -14.5h-228q-20 0 -35 14.5t-15 35.5t15 36
t35 15h30l161 498h-67q-20 0 -35 15t-15 36t15 35.5t35 14.5h35q-34 40 -34 99q0 74 52 117.5t131 43.5zM362 585l-71 -241h144l-68 241h-5zM362 727q28 0 49 16t21 56t-21 56t-49 16q-27 0 -48 -16t-21 -56t21 -56t48 -16z" />
    <glyph glyph-name="AE" unicode="&#xc6;" horiz-adv-x="1050" 
d="M611 115h259l26 94q7 24 26.5 35.5t39.5 9t35.5 -17.5t14.5 -38l-7 -147q-1 -22 -14.5 -36.5t-38.5 -14.5h-529q-20 0 -35 14.5t-15 35.5t15 36t35 15h40v135h-184l-59 -135h43q20 0 35 -15t15 -36t-15 -35.5t-35 -14.5h-218q-20 0 -35 14.5t-15 35.5t15 36t35 15h30
l226 498h-58q-20 0 -35 15t-15 36t15 35.5t35 14.5h682q20 0 35 -15t15 -36v-139q0 -24 -16.5 -38.5t-37.5 -15t-39.5 13.5t-21.5 39l-10 76h-239v-181h88v42q0 23 15.5 39t40.5 16q26 0 40.5 -16t14.5 -39v-195q0 -23 -14.5 -39t-40.5 -16q-25 0 -40.5 16t-15.5 39v45h-88
v-181zM463 344v241h-29l-107 -241h136z" />
    <glyph glyph-name="Ccedilla" unicode="&#xc7;" horiz-adv-x="656" 
d="M614 114q0 -34 -29 -55q-91 -66 -218 -69l-6 -19q51 -5 81 -33t31 -74q0 -53 -42 -85t-101 -32q-62 0 -97 16q-32 14 -32 41q0 16 11.5 27.5t27.5 11.5q12 0 34.5 -6t33.5 -6q51 0 51 34q0 39 -77 39q-13 0 -20 10.5t0 29.5l24 52q-108 21 -175.5 109t-67.5 237
q0 174 79 271t216 97q42 0 83.5 -16.5t62.5 -44.5l7 25q4 17 19.5 26.5t35.5 9.5q26 0 44 -16.5t18 -48.5v-173q0 -26 -17 -42.5t-41 -16.5q-52 0 -66 48q-21 69 -47 100t-84 31q-73 0 -113.5 -61t-40.5 -186q0 -114 46.5 -169.5t131.5 -55.5q37 0 71 14.5t60 29t44 14.5
q26 0 44 -19.5t18 -44.5z" />
    <glyph glyph-name="Egrave" unicode="&#xc8;" horiz-adv-x="716" 
d="M277 585v-181h88v42q0 23 15.5 39t40.5 16q26 0 40.5 -16t14.5 -39v-195q0 -23 -14.5 -39t-40.5 -16q-25 0 -40.5 16t-15.5 39v45h-88v-181h259l26 94q7 24 26.5 35.5t39.5 9t35.5 -17.5t14.5 -38l-7 -147q-1 -22 -14.5 -36.5t-38.5 -14.5h-529q-20 0 -35 14.5t-15 35.5
t15 36t35 15h40v498h-40q-20 0 -35 15t-15 36t15 35.5t35 14.5h502q20 0 35 -15t15 -36v-139q0 -24 -16.5 -38.5t-37.5 -15t-39.5 13.5t-21.5 39l-10 76h-239zM222 858q-31 27 -31 59q0 30 23 52.5t54 22.5q35 0 60 -33l90 -114q18 -23 18 -41q0 -23 -17.5 -40.5
t-41.5 -17.5q-22 0 -43 18z" />
    <glyph glyph-name="Eacute" unicode="&#xc9;" horiz-adv-x="716" 
d="M277 585v-181h88v42q0 23 15.5 39t40.5 16q26 0 40.5 -16t14.5 -39v-195q0 -23 -14.5 -39t-40.5 -16q-25 0 -40.5 16t-15.5 39v45h-88v-181h259l26 94q7 24 26.5 35.5t39.5 9t35.5 -17.5t14.5 -38l-7 -147q-1 -22 -14.5 -36.5t-38.5 -14.5h-529q-20 0 -35 14.5t-15 35.5
t15 36t35 15h40v498h-40q-20 0 -35 15t-15 36t15 35.5t35 14.5h502q20 0 35 -15t15 -36v-139q0 -24 -16.5 -38.5t-37.5 -15t-39.5 13.5t-21.5 39l-10 76h-239zM496 858l-112 -94q-21 -18 -43 -18q-24 0 -41.5 17.5t-17.5 40.5q0 18 18 41l90 114q25 33 60 33q31 0 54 -22.5
t23 -52.5q0 -32 -31 -59z" />
    <glyph glyph-name="Ecircumflex" unicode="&#xca;" horiz-adv-x="716" 
d="M277 585v-181h88v42q0 23 15.5 39t40.5 16q26 0 40.5 -16t14.5 -39v-195q0 -23 -14.5 -39t-40.5 -16q-25 0 -40.5 16t-15.5 39v45h-88v-181h259l26 94q7 24 26.5 35.5t39.5 9t35.5 -17.5t14.5 -38l-7 -147q-1 -22 -14.5 -36.5t-38.5 -14.5h-529q-20 0 -35 14.5t-15 35.5
t15 36t35 15h40v498h-40q-20 0 -35 15t-15 36t15 35.5t35 14.5h502q20 0 35 -15t15 -36v-139q0 -24 -16.5 -38.5t-37.5 -15t-39.5 13.5t-21.5 39l-10 76h-239zM354 841l-93 -74q-16 -13 -38 -13q-21 0 -37 16t-16 37q0 19 18 37l120 124q20 20 46.5 20.5t47.5 -20.5
l120 -124q18 -18 18 -37q0 -21 -16 -37t-37 -16q-22 0 -38 13l-93 74h-2z" />
    <glyph glyph-name="Edieresis" unicode="&#xcb;" horiz-adv-x="716" 
d="M277 585v-181h88v42q0 23 15.5 39t40.5 16q26 0 40.5 -16t14.5 -39v-195q0 -23 -14.5 -39t-40.5 -16q-25 0 -40.5 16t-15.5 39v45h-88v-181h259l26 94q7 24 26.5 35.5t39.5 9t35.5 -17.5t14.5 -38l-7 -147q-1 -22 -14.5 -36.5t-38.5 -14.5h-529q-20 0 -35 14.5t-15 35.5
t15 36t35 15h40v498h-40q-20 0 -35 15t-15 36t15 35.5t35 14.5h502q20 0 35 -15t15 -36v-139q0 -24 -16.5 -38.5t-37.5 -15t-39.5 13.5t-21.5 39l-10 76h-239zM185 843q0 34 23 57t56 23q34 0 57 -23t23 -57t-23 -57t-57 -23q-33 0 -56 23t-23 57zM380 843q0 34 23 57t57 23
q33 0 56 -23t23 -57t-23 -57t-56 -23q-34 0 -57 23t-23 57z" />
    <glyph glyph-name="Igrave" unicode="&#xcc;" horiz-adv-x="430" 
d="M289 101h60q20 0 35 -15t15 -36t-15 -35.5t-35 -14.5h-268q-20 0 -35 14.5t-15 35.5t15 36t35 15h60v498h-60q-20 0 -35 15t-15 36t15 35.5t35 14.5h268q20 0 35 -14.5t15 -35.5t-15 -36t-35 -15h-60v-498zM70 858q-31 27 -31 59q0 30 23 52.5t54 22.5q35 0 60 -33
l90 -114q18 -23 18 -41q0 -23 -17.5 -40.5t-41.5 -17.5q-22 0 -43 18z" />
    <glyph glyph-name="Iacute" unicode="&#xcd;" horiz-adv-x="430" 
d="M289 101h60q20 0 35 -15t15 -36t-15 -35.5t-35 -14.5h-268q-20 0 -35 14.5t-15 35.5t15 36t35 15h60v498h-60q-20 0 -35 15t-15 36t15 35.5t35 14.5h268q20 0 35 -14.5t15 -35.5t-15 -36t-35 -15h-60v-498zM365 858l-112 -94q-21 -18 -43 -18q-24 0 -41.5 17.5
t-17.5 40.5q0 18 18 41l90 114q25 33 60 33q31 0 54 -22.5t23 -52.5q0 -32 -31 -59z" />
    <glyph glyph-name="Icircumflex" unicode="&#xce;" horiz-adv-x="430" 
d="M214 841l-93 -74q-16 -13 -38 -13q-21 0 -37 16t-16 37q0 19 18 37l120 124q20 20 46.5 20.5t47.5 -20.5l120 -124q18 -18 18 -37q0 -21 -16 -37t-37 -16q-22 0 -38 13l-93 74h-2zM289 101h60q20 0 35 -15t15 -36t-15 -35.5t-35 -14.5h-268q-20 0 -35 14.5t-15 35.5
t15 36t35 15h60v498h-60q-20 0 -35 15t-15 36t15 35.5t35 14.5h268q20 0 35 -14.5t15 -35.5t-15 -36t-35 -15h-60v-498z" />
    <glyph glyph-name="Idieresis" unicode="&#xcf;" horiz-adv-x="430" 
d="M289 101h60q20 0 35 -15t15 -36t-15 -35.5t-35 -14.5h-268q-20 0 -35 14.5t-15 35.5t15 36t35 15h60v498h-60q-20 0 -35 15t-15 36t15 35.5t35 14.5h268q20 0 35 -14.5t15 -35.5t-15 -36t-35 -15h-60v-498zM34 843q0 34 23 57t56 23q34 0 57 -23t23 -57t-23 -57t-57 -23
q-33 0 -56 23t-23 57zM229 843q0 34 23 57t57 23q33 0 56 -23t23 -57t-23 -57t-56 -23q-34 0 -57 23t-23 57z" />
    <glyph glyph-name="Eth" unicode="&#xd0;" horiz-adv-x="776" 
d="M90 0q-20 0 -35 14.5t-15 35.5t15 36t35 15h40v195h-49q-20 0 -35.5 16t-15.5 38q0 23 15 38.5t36 15.5h49v195h-40q-20 0 -35 15t-15 36t15 35.5t35 14.5h291q154 0 253.5 -89.5t99.5 -260.5t-99.5 -260.5t-253.5 -89.5h-291zM278 115h67q233 0 233 235t-233 235h-67
v-181h136q21 0 36 -15.5t15 -38.5q0 -22 -15 -38t-36 -16h-136v-181z" />
    <glyph glyph-name="Ntilde" unicode="&#xd1;" horiz-adv-x="834" 
d="M526 46l-259 482v-427h40q20 0 35 -15t15 -36t-15 -35.5t-35 -14.5h-218q-20 0 -35 14.5t-15 35.5t15 36t35 15h40v498h-40q-20 0 -35 15t-15 36t15 35.5t35 14.5h173q33 0 51.5 -10.5t33.5 -39.5l231 -443v392h-40q-20 0 -35 15t-15 36t15 35.5t35 14.5h218
q20 0 35 -14.5t15 -35.5t-15 -36t-35 -15h-40v-505q0 -49 -28.5 -76.5t-68.5 -27.5q-63 0 -93 56zM593 865q0 -49 -31 -77t-73 -28q-25 0 -84 25.5t-64 25.5q-15 0 -17 -17q-2 -16 -17 -26.5t-35 -10.5q-23 0 -40.5 16t-17.5 47v4q0 49 31 77t73 28q26 0 85 -25.5t62 -25.5
q15 0 18 17q4 16 18 26.5t33 10.5q23 0 41 -16t18 -47v-4z" />
    <glyph glyph-name="Ograve" unicode="&#xd2;" horiz-adv-x="744" 
d="M372 710q150 0 240 -92.5t90 -267.5q0 -174 -90 -267t-240 -93q-151 0 -240.5 92.5t-89.5 267.5t89.5 267.5t240.5 92.5zM372 113q174 0 174 237q0 240 -174 240t-174 -240q0 -237 174 -237zM232 858q-31 27 -31 59q0 30 23 52.5t54 22.5q35 0 60 -33l90 -114
q18 -23 18 -41q0 -23 -17.5 -40.5t-41.5 -17.5q-22 0 -43 18z" />
    <glyph glyph-name="Oacute" unicode="&#xd3;" horiz-adv-x="744" 
d="M372 710q150 0 240 -92.5t90 -267.5q0 -174 -90 -267t-240 -93q-151 0 -240.5 92.5t-89.5 267.5t89.5 267.5t240.5 92.5zM372 113q174 0 174 237q0 240 -174 240t-174 -240q0 -237 174 -237zM514 858l-112 -94q-21 -18 -43 -18q-24 0 -41.5 17.5t-17.5 40.5q0 18 18 41
l90 114q25 33 60 33q31 0 54 -22.5t23 -52.5q0 -32 -31 -59z" />
    <glyph glyph-name="Ocircumflex" unicode="&#xd4;" horiz-adv-x="744" 
d="M372 710q150 0 240 -92.5t90 -267.5q0 -174 -90 -267t-240 -93q-151 0 -240.5 92.5t-89.5 267.5t89.5 267.5t240.5 92.5zM372 113q174 0 174 237q0 240 -174 240t-174 -240q0 -237 174 -237zM371 841l-93 -74q-16 -13 -38 -13q-21 0 -37 16t-16 37q0 19 18 37l120 124
q20 20 46.5 20.5t47.5 -20.5l120 -124q18 -18 18 -37q0 -21 -16 -37t-37 -16q-22 0 -38 13l-93 74h-2z" />
    <glyph glyph-name="Otilde" unicode="&#xd5;" horiz-adv-x="744" 
d="M372 710q150 0 240 -92.5t90 -267.5q0 -174 -90 -267t-240 -93q-151 0 -240.5 92.5t-89.5 267.5t89.5 267.5t240.5 92.5zM372 113q174 0 174 237q0 240 -174 240t-174 -240q0 -237 174 -237zM560 865q0 -49 -31 -77t-73 -28q-26 0 -85 25.5t-63 25.5q-15 0 -17 -17
q-2 -16 -17 -26.5t-35 -10.5q-23 0 -40.5 16t-17.5 47v4q0 49 31 77t73 28q26 0 85 -25.5t62 -25.5q15 0 18 17q4 16 18 26.5t33 10.5q23 0 41 -16t18 -47v-4z" />
    <glyph glyph-name="Odieresis" unicode="&#xd6;" horiz-adv-x="744" 
d="M372 710q150 0 240 -92.5t90 -267.5q0 -174 -90 -267t-240 -93q-151 0 -240.5 92.5t-89.5 267.5t89.5 267.5t240.5 92.5zM372 113q174 0 174 237q0 240 -174 240t-174 -240q0 -237 174 -237zM181 843q0 34 23 57t56 23q34 0 57 -23t23 -57t-23 -57t-57 -23q-33 0 -56 23
t-23 57zM376 843q0 34 23 57t57 23q33 0 56 -23t23 -57t-23 -57t-56 -23q-34 0 -57 23t-23 57z" />
    <glyph glyph-name="multiply" unicode="&#xd7;" 
d="M40 511q-20 20 -19.5 48.5t20.5 48.5q21 21 49 21t48 -20l162 -163l162 163q20 20 48 20t49 -21q20 -20 20.5 -48.5t-19.5 -48.5l-162 -163l162 -163q20 -20 20 -48t-21 -49q-20 -20 -48.5 -20.5t-48.5 19.5l-162 162l-162 -162q-20 -20 -48.5 -19.5t-48.5 20.5
q-21 21 -21 49t20 48l162 163z" />
    <glyph glyph-name="Oslash" unicode="&#xd8;" horiz-adv-x="742" 
d="M371 710q91 0 161 -35l47 67q13 18 35 22.5t39 -8.5q19 -13 22.5 -34.5t-9.5 -41.5l-49 -69q84 -95 84 -261q0 -174 -90 -267t-240 -93q-94 0 -163 35l-45 -65q-13 -18 -35.5 -22.5t-40.5 9.5q-17 12 -21 34.5t9 40.5l48 69q-82 95 -82 259q0 175 89.5 267.5t240.5 92.5z
M371 113q174 0 174 237q0 75 -19 130l-242 -347q37 -20 87 -20zM197 350q0 -76 18 -129l243 348q-36 21 -87 21q-174 0 -174 -240z" />
    <glyph glyph-name="Ugrave" unicode="&#xd9;" horiz-adv-x="784" 
d="M392 113q67 0 110 39.5t43 121.5v325h-60q-20 0 -35 15t-15 36t15 35.5t35 14.5h228q20 0 35 -14.5t15 -35.5t-15 -36t-35 -15h-30v-327q0 -128 -74.5 -205t-216.5 -77t-216.5 77t-74.5 205v327h-30q-20 0 -35 15t-15 36t15 35.5t35 14.5h228q20 0 35 -14.5t15 -35.5
t-15 -36t-35 -15h-50v-325q0 -83 38.5 -122t104.5 -39zM244 858q-31 27 -31 59q0 30 23 52.5t54 22.5q35 0 60 -33l90 -114q18 -23 18 -41q0 -23 -17.5 -40.5t-41.5 -17.5q-22 0 -43 18z" />
    <glyph glyph-name="Uacute" unicode="&#xda;" horiz-adv-x="784" 
d="M392 113q67 0 110 39.5t43 121.5v325h-60q-20 0 -35 15t-15 36t15 35.5t35 14.5h228q20 0 35 -14.5t15 -35.5t-15 -36t-35 -15h-30v-327q0 -128 -74.5 -205t-216.5 -77t-216.5 77t-74.5 205v327h-30q-20 0 -35 15t-15 36t15 35.5t35 14.5h228q20 0 35 -14.5t15 -35.5
t-15 -36t-35 -15h-50v-325q0 -83 38.5 -122t104.5 -39zM547 858l-112 -94q-21 -18 -43 -18q-24 0 -41.5 17.5t-17.5 40.5q0 18 18 41l90 114q25 33 60 33q31 0 54 -22.5t23 -52.5q0 -32 -31 -59z" />
    <glyph glyph-name="Ucircumflex" unicode="&#xdb;" horiz-adv-x="784" 
d="M392 113q67 0 110 39.5t43 121.5v325h-60q-20 0 -35 15t-15 36t15 35.5t35 14.5h228q20 0 35 -14.5t15 -35.5t-15 -36t-35 -15h-30v-327q0 -128 -74.5 -205t-216.5 -77t-216.5 77t-74.5 205v327h-30q-20 0 -35 15t-15 36t15 35.5t35 14.5h228q20 0 35 -14.5t15 -35.5
t-15 -36t-35 -15h-50v-325q0 -83 38.5 -122t104.5 -39zM391 841l-93 -74q-16 -13 -38 -13q-21 0 -37 16t-16 37q0 19 18 37l120 124q20 20 46.5 20.5t47.5 -20.5l120 -124q18 -18 18 -37q0 -21 -16 -37t-37 -16q-22 0 -38 13l-93 74h-2z" />
    <glyph glyph-name="Udieresis" unicode="&#xdc;" horiz-adv-x="784" 
d="M392 113q67 0 110 39.5t43 121.5v325h-60q-20 0 -35 15t-15 36t15 35.5t35 14.5h228q20 0 35 -14.5t15 -35.5t-15 -36t-35 -15h-30v-327q0 -128 -74.5 -205t-216.5 -77t-216.5 77t-74.5 205v327h-30q-20 0 -35 15t-15 36t15 35.5t35 14.5h228q20 0 35 -14.5t15 -35.5
t-15 -36t-35 -15h-50v-325q0 -83 38.5 -122t104.5 -39zM208 843q0 34 23 57t56 23q34 0 57 -23t23 -57t-23 -57t-57 -23q-33 0 -56 23t-23 57zM403 843q0 34 23 57t57 23q33 0 56 -23t23 -57t-23 -57t-56 -23q-34 0 -57 23t-23 57z" />
    <glyph glyph-name="Yacute" unicode="&#xdd;" horiz-adv-x="716" 
d="M429 101h60q20 0 35 -15t15 -36t-15 -35.5t-35 -14.5h-268q-20 0 -35 14.5t-15 35.5t15 36t35 15h60v155l-196 343h-30q-20 0 -35 15t-15 36t15 35.5t35 14.5h220q20 0 35 -14.5t15 -35.5t-15 -36t-35 -15h-40l129 -235h7l131 235h-42q-20 0 -35 15t-15 36t15 35.5
t35 14.5h208q20 0 35 -14.5t15 -35.5t-15 -36t-35 -15h-30l-209 -343v-155zM485 858l-112 -94q-21 -18 -43 -18q-24 0 -41.5 17.5t-17.5 40.5q0 18 18 41l90 114q25 33 60 33q31 0 54 -22.5t23 -52.5q0 -32 -31 -59z" />
    <glyph glyph-name="Thorn" unicode="&#xde;" horiz-adv-x="697" 
d="M277 101h40q20 0 35 -15t15 -36t-15 -35.5t-35 -14.5h-228q-20 0 -35 14.5t-15 35.5t15 36t35 15h40v498h-40q-20 0 -35 15t-15 36t15 35.5t35 14.5h228q20 0 35 -14.5t15 -35.5t-15 -36t-35 -15h-40v-67h171q102 0 163.5 -49.5t61.5 -131.5t-61.5 -131.5t-163.5 -49.5
h-171v-69zM277 418v-133h147q99 0 99 66q0 67 -99 67h-147z" />
    <glyph glyph-name="germandbls" unicode="&#xdf;" horiz-adv-x="645" 
d="M617 163q0 -72 -53 -122.5t-152 -50.5q-58 0 -92 16t-34 53q0 23 14 41t36 18q5 0 15 -2q32 -8 54 -8q64 0 64 60q0 21 -21.5 40t-47.5 33t-47.5 42t-21.5 64q0 35 45 94.5t45 84.5q0 31 -21.5 52.5t-56.5 21.5q-94 0 -94 -135v-418q0 -19 -13.5 -33t-33.5 -14h-127
q-19 0 -33 14t-14 33t14 33t33 14h34v316h-38q-19 0 -33 14t-14 33t14 33t33 14h38q8 98 68.5 157t167.5 59q86 0 150 -48.5t64 -131.5q0 -40 -21.5 -76t-43 -61t-21.5 -38q0 -11 15 -23t36 -26t42 -32.5t36 -49.5t15 -71z" />
    <glyph glyph-name="agrave" unicode="&#xe0;" horiz-adv-x="551" 
d="M329 303v33q0 69 -75 69q-38 0 -73 -15l-6 -32q-4 -17 -19.5 -27.5t-34.5 -10.5q-22 0 -38.5 15t-16.5 44v89q0 23 16.5 36t38.5 13q35 0 46 -30l1 -3q60 30 120 30q83 0 132 -40.5t49 -128.5v-209q0 -21 4 -28.5t15 -7.5h7q19 0 30.5 -12.5t11.5 -36.5q0 -25 -22.5 -43
t-73.5 -18q-71 0 -97 59q-20 -22 -58 -40.5t-87 -18.5q-77 0 -122 44.5t-45 106.5q0 40 15 69t39.5 46.5t61.5 28.5t74 14.5t84 3.5h23zM329 210q-98 0 -127 -16q-28 -14 -28 -45q0 -21 15 -35.5t45 -14.5t57 14t38 27v70zM139 661q-31 27 -31 59q0 30 23 52.5t54 22.5
q35 0 60 -33l90 -114q18 -23 18 -41q0 -23 -17.5 -40.5t-41.5 -17.5q-22 0 -43 18z" />
    <glyph glyph-name="aacute" unicode="&#xe1;" horiz-adv-x="551" 
d="M329 303v33q0 69 -75 69q-38 0 -73 -15l-6 -32q-4 -17 -19.5 -27.5t-34.5 -10.5q-22 0 -38.5 15t-16.5 44v89q0 23 16.5 36t38.5 13q35 0 46 -30l1 -3q60 30 120 30q83 0 132 -40.5t49 -128.5v-209q0 -21 4 -28.5t15 -7.5h7q19 0 30.5 -12.5t11.5 -36.5q0 -25 -22.5 -43
t-73.5 -18q-71 0 -97 59q-20 -22 -58 -40.5t-87 -18.5q-77 0 -122 44.5t-45 106.5q0 40 15 69t39.5 46.5t61.5 28.5t74 14.5t84 3.5h23zM329 210q-98 0 -127 -16q-28 -14 -28 -45q0 -21 15 -35.5t45 -14.5t57 14t38 27v70zM400 661l-112 -94q-21 -18 -43 -18
q-24 0 -41.5 17.5t-17.5 40.5q0 18 18 41l90 114q25 33 60 33q31 0 54 -22.5t23 -52.5q0 -32 -31 -59z" />
    <glyph glyph-name="acircumflex" unicode="&#xe2;" horiz-adv-x="551" 
d="M329 303v33q0 69 -75 69q-38 0 -73 -15l-6 -32q-4 -17 -19.5 -27.5t-34.5 -10.5q-22 0 -38.5 15t-16.5 44v89q0 23 16.5 36t38.5 13q35 0 46 -30l1 -3q60 30 120 30q83 0 132 -40.5t49 -128.5v-209q0 -21 4 -28.5t15 -7.5h7q19 0 30.5 -12.5t11.5 -36.5q0 -25 -22.5 -43
t-73.5 -18q-71 0 -97 59q-20 -22 -58 -40.5t-87 -18.5q-77 0 -122 44.5t-45 106.5q0 40 15 69t39.5 46.5t61.5 28.5t74 14.5t84 3.5h23zM329 210q-98 0 -127 -16q-28 -14 -28 -45q0 -21 15 -35.5t45 -14.5t57 14t38 27v70zM273 644l-93 -74q-16 -13 -38 -13q-21 0 -37 16
t-16 37q0 19 18 37l120 124q20 20 46.5 20.5t47.5 -20.5l120 -124q18 -18 18 -37q0 -21 -16 -37t-37 -16q-22 0 -38 13l-93 74h-2z" />
    <glyph glyph-name="atilde" unicode="&#xe3;" horiz-adv-x="551" 
d="M329 303v33q0 69 -75 69q-38 0 -73 -15l-6 -32q-4 -17 -19.5 -27.5t-34.5 -10.5q-22 0 -38.5 15t-16.5 44v89q0 23 16.5 36t38.5 13q35 0 46 -30l1 -3q60 30 120 30q83 0 132 -40.5t49 -128.5v-209q0 -21 4 -28.5t15 -7.5h7q19 0 30.5 -12.5t11.5 -36.5q0 -25 -22.5 -43
t-73.5 -18q-71 0 -97 59q-20 -22 -58 -40.5t-87 -18.5q-77 0 -122 44.5t-45 106.5q0 40 15 69t39.5 46.5t61.5 28.5t74 14.5t84 3.5h23zM329 210q-98 0 -127 -16q-28 -14 -28 -45q0 -21 15 -35.5t45 -14.5t57 14t38 27v70zM467 668q0 -49 -31 -77t-73 -28q-26 0 -84.5 25.5
t-63.5 25.5q-15 0 -17 -17q-2 -16 -17 -26.5t-35 -10.5q-23 0 -40.5 16t-17.5 47v4q0 49 31 77t73 28q26 0 85 -25.5t62 -25.5q15 0 18 17q4 16 18 26.5t33 10.5q23 0 41 -16t18 -47v-4z" />
    <glyph glyph-name="adieresis" unicode="&#xe4;" horiz-adv-x="551" 
d="M329 303v33q0 69 -75 69q-38 0 -73 -15l-6 -32q-4 -17 -19.5 -27.5t-34.5 -10.5q-22 0 -38.5 15t-16.5 44v89q0 23 16.5 36t38.5 13q35 0 46 -30l1 -3q60 30 120 30q83 0 132 -40.5t49 -128.5v-209q0 -21 4 -28.5t15 -7.5h7q19 0 30.5 -12.5t11.5 -36.5q0 -25 -22.5 -43
t-73.5 -18q-71 0 -97 59q-20 -22 -58 -40.5t-87 -18.5q-77 0 -122 44.5t-45 106.5q0 40 15 69t39.5 46.5t61.5 28.5t74 14.5t84 3.5h23zM329 210q-98 0 -127 -16q-28 -14 -28 -45q0 -21 15 -35.5t45 -14.5t57 14t38 27v70zM92 646q0 34 23 57t56 23q34 0 57 -23t23 -57
t-23 -57t-57 -23q-33 0 -56 23t-23 57zM287 646q0 34 23 57t57 23q33 0 56 -23t23 -57t-23 -57t-56 -23q-34 0 -57 23t-23 57z" />
    <glyph glyph-name="aring" unicode="&#xe5;" horiz-adv-x="551" 
d="M262 625q18 0 32 11t14 36t-14 36t-32 11t-32 -11t-14 -36t14 -36t32 -11zM262 802q61 0 101 -35t40 -95t-40 -95t-101 -35t-101.5 35t-40.5 95t40.5 95t101.5 35zM329 303v33q0 69 -75 69q-38 0 -73 -15l-6 -32q-4 -17 -19.5 -27.5t-34.5 -10.5q-22 0 -38.5 15t-16.5 44
v89q0 23 16.5 36t38.5 13q35 0 46 -30l1 -3q60 30 120 30q83 0 132 -40.5t49 -128.5v-209q0 -21 4 -28.5t15 -7.5h7q19 0 30.5 -12.5t11.5 -36.5q0 -25 -22.5 -43t-73.5 -18q-71 0 -97 59q-20 -22 -58 -40.5t-87 -18.5q-77 0 -122 44.5t-45 106.5q0 40 15 69t39.5 46.5
t61.5 28.5t74 14.5t84 3.5h23zM329 210q-98 0 -127 -16q-28 -14 -28 -45q0 -21 15 -35.5t45 -14.5t57 14t38 27v70z" />
    <glyph glyph-name="ae" unicode="&#xe6;" horiz-adv-x="815" 
d="M61 379v89q0 24 16.5 36.5t38.5 12.5q36 0 46 -30l1 -3q60 30 120 30q88 0 138 -60q60 60 151 60q39 0 74.5 -12t66.5 -36.5t49.5 -68.5t18.5 -103q0 -36 -15.5 -52.5t-48.5 -16.5l-240 -5q4 -108 100 -112q40 0 81.5 18.5t59.5 18.5h2q27 0 41 -17t14 -40q0 -36 -45 -62
q-65 -36 -160 -36q-122 0 -186 72q-65 -72 -170 -72q-76 0 -128.5 43t-52.5 117q0 69 55 111q71 53 236 55v20q0 69 -75 69q-38 0 -73 -15l-6 -32q-4 -17 -19 -27.5t-35 -10.5q-22 0 -38.5 15t-16.5 44zM234 99q41 0 70.5 18t36.5 33q-9 30 -12 68q-76 -3 -113.5 -16.5
t-37.5 -47.5q0 -25 17 -40t39 -15zM477 321l161 3q-1 45 -24.5 63t-54.5 18q-33 0 -56.5 -20.5t-25.5 -63.5z" />
    <glyph glyph-name="ccedilla" unicode="&#xe7;" horiz-adv-x="522" 
d="M447 26q-61 -33 -154 -36l-6 -19q51 -5 81 -33t31 -74q0 -53 -42 -85t-101 -32q-62 0 -97 16q-32 14 -32 41q0 16 11.5 27.5t27.5 11.5q12 0 34.5 -6t33.5 -6q51 0 51 34q0 39 -77 39q-13 0 -20 10.5t0 29.5l25 54q-82 20 -130.5 84.5t-48.5 169.5q0 123 62 192.5
t161 69.5q36 0 64.5 -15.5t42.5 -34.5l5 10q21 40 55 40q23 0 38 -13t15 -39v-125q0 -21 -17 -37.5t-41 -16.5q-45 0 -69 47l-5 9q-18 34 -34.5 49.5t-42.5 15.5q-43 0 -68 -37t-25 -112q0 -78 34 -112.5t85 -34.5q40 0 81.5 18.5t59.5 18.5h2q27 0 41 -17t14 -40
q0 -36 -45 -62z" />
    <glyph glyph-name="egrave" unicode="&#xe8;" horiz-adv-x="534" 
d="M438 218h-261q2 -49 34 -79.5t87 -30.5q40 0 81.5 18.5t59.5 18.5h2q27 0 41 -17t14 -40q0 -36 -45 -62q-65 -36 -160 -36q-118 0 -187.5 67.5t-69.5 197.5q0 47 14 91t41.5 82.5t76.5 62t113 23.5q101 0 161.5 -62t60.5 -170q0 -28 -16 -46t-47 -18zM184 319h177
q-3 44 -28 65t-60 21q-36 0 -60 -25.5t-29 -60.5zM129 661q-31 27 -31 59q0 30 23 52.5t54 22.5q35 0 60 -33l90 -114q18 -23 18 -41q0 -23 -17.5 -40.5t-41.5 -17.5q-22 0 -43 18z" />
    <glyph glyph-name="eacute" unicode="&#xe9;" horiz-adv-x="534" 
d="M438 218h-261q2 -49 34 -79.5t87 -30.5q40 0 81.5 18.5t59.5 18.5h2q27 0 41 -17t14 -40q0 -36 -45 -62q-65 -36 -160 -36q-118 0 -187.5 67.5t-69.5 197.5q0 47 14 91t41.5 82.5t76.5 62t113 23.5q101 0 161.5 -62t60.5 -170q0 -28 -16 -46t-47 -18zM184 319h177
q-3 44 -28 65t-60 21q-36 0 -60 -25.5t-29 -60.5zM401 661l-112 -94q-21 -18 -43 -18q-24 0 -41.5 17.5t-17.5 40.5q0 18 18 41l90 114q25 33 60 33q31 0 54 -22.5t23 -52.5q0 -32 -31 -59z" />
    <glyph glyph-name="ecircumflex" unicode="&#xea;" horiz-adv-x="534" 
d="M438 218h-261q2 -49 34 -79.5t87 -30.5q40 0 81.5 18.5t59.5 18.5h2q27 0 41 -17t14 -40q0 -36 -45 -62q-65 -36 -160 -36q-118 0 -187.5 67.5t-69.5 197.5q0 47 14 91t41.5 82.5t76.5 62t113 23.5q101 0 161.5 -62t60.5 -170q0 -28 -16 -46t-47 -18zM184 319h177
q-3 44 -28 65t-60 21q-36 0 -60 -25.5t-29 -60.5zM287 644l-93 -74q-16 -13 -38 -13q-21 0 -37 16t-16 37q0 19 18 37l120 124q20 20 46.5 20.5t47.5 -20.5l120 -124q18 -18 18 -37q0 -21 -16 -37t-37 -16q-22 0 -38 13l-93 74h-2z" />
    <glyph glyph-name="edieresis" unicode="&#xeb;" horiz-adv-x="534" 
d="M438 218h-261q2 -49 34 -79.5t87 -30.5q40 0 81.5 18.5t59.5 18.5h2q27 0 41 -17t14 -40q0 -36 -45 -62q-65 -36 -160 -36q-118 0 -187.5 67.5t-69.5 197.5q0 47 14 91t41.5 82.5t76.5 62t113 23.5q101 0 161.5 -62t60.5 -170q0 -28 -16 -46t-47 -18zM184 319h177
q-3 44 -28 65t-60 21q-36 0 -60 -25.5t-29 -60.5zM95 646q0 34 23 57t56 23q34 0 57 -23t23 -57t-23 -57t-57 -23q-33 0 -56 23t-23 57zM290 646q0 34 23 57t57 23q33 0 56 -23t23 -57t-23 -57t-56 -23q-34 0 -57 23t-23 57z" />
    <glyph glyph-name="igrave" unicode="&#xec;" horiz-adv-x="337" 
d="M4 661q-31 27 -31 59q0 30 23 52.5t54 22.5q35 0 60 -33l90 -114q18 -23 18 -41q0 -23 -17.5 -40.5t-41.5 -17.5q-22 0 -43 18zM282 0h-208q-20 0 -33.5 14t-13.5 33t13.5 33t33.5 14h34v316h-34q-20 0 -33.5 14t-13.5 33t13.5 33t33.5 14h127q19 0 33 -14t14 -33v-363
h34q20 0 33.5 -14t13.5 -33t-13.5 -33t-33.5 -14z" />
    <glyph glyph-name="iacute" unicode="&#xed;" horiz-adv-x="337" 
d="M304 661l-112 -94q-21 -18 -43 -18q-24 0 -41.5 17.5t-17.5 40.5q0 18 18 41l90 114q25 33 60 33q31 0 54 -22.5t23 -52.5q0 -32 -31 -59zM282 0h-208q-20 0 -33.5 14t-13.5 33t13.5 33t33.5 14h34v316h-34q-20 0 -33.5 14t-13.5 33t13.5 33t33.5 14h127q19 0 33 -14
t14 -33v-363h34q20 0 33.5 -14t13.5 -33t-13.5 -33t-33.5 -14z" />
    <glyph glyph-name="icircumflex" unicode="&#xee;" horiz-adv-x="337" 
d="M282 0h-208q-20 0 -33.5 14t-13.5 33t13.5 33t33.5 14h34v316h-34q-20 0 -33.5 14t-13.5 33t13.5 33t33.5 14h127q19 0 33 -14t14 -33v-363h34q20 0 33.5 -14t13.5 -33t-13.5 -33t-33.5 -14zM162 644l-93 -74q-16 -13 -38 -13q-21 0 -37 16t-16 37q0 19 18 37l120 124
q20 20 46.5 20.5t47.5 -20.5l120 -124q18 -18 18 -37q0 -21 -16 -37t-37 -16q-22 0 -38 13l-93 74h-2z" />
    <glyph glyph-name="idieresis" unicode="&#xef;" horiz-adv-x="337" 
d="M-18 646q0 34 23 57t56 23q34 0 57 -23t23 -57t-23 -57t-57 -23q-33 0 -56 23t-23 57zM177 646q0 34 23 57t57 23q33 0 56 -23t23 -57t-23 -57t-56 -23q-34 0 -57 23t-23 57zM282 0h-208q-20 0 -33.5 14t-13.5 33t13.5 33t33.5 14h34v316h-34q-20 0 -33.5 14t-13.5 33
t13.5 33t33.5 14h127q19 0 33 -14t14 -33v-363h34q20 0 33.5 -14t13.5 -33t-13.5 -33t-33.5 -14z" />
    <glyph glyph-name="eth" unicode="&#xf0;" horiz-adv-x="586" 
d="M369 484q-32 53 -73 97l-56 -33q-13 -7 -28 -3t-23 18q-8 15 -5 30t16 23l38 22l-23 21q-24 20 -24 51q0 25 17 42.5t49.5 14.5t68.5 -34q1 -1 29 -26l46 27q13 8 28.5 3.5t23.5 -18.5t4.5 -30t-16.5 -23l-31 -19q132 -163 132 -386q0 -123 -69.5 -197t-177.5 -74
q-114 0 -187.5 67t-73.5 194q0 124 66.5 193.5t175.5 69.5q24 0 53 -10.5t40 -19.5zM176 252q0 -73 31 -110t81 -37t81 37t31 110t-31 110t-81 37t-81 -37t-31 -110z" />
    <glyph glyph-name="ntilde" unicode="&#xf1;" horiz-adv-x="651" 
d="M567 94h24q19 0 33 -14t14 -33t-14 -33t-33 -14h-190q-19 0 -33 14t-14 33t14 33t33 14h26v228q0 75 -72 75q-28 0 -60.5 -17.5t-53.5 -36.5v-249h35q20 0 33.5 -14t13.5 -33t-13.5 -33t-33.5 -14h-199q-19 0 -33 14t-14 33t14 33t33 14h24v316h-24q-19 0 -33 14t-14 33
t14 33t33 14h115q20 0 33.5 -14t13.5 -33v-12q32 31 75.5 50t82.5 19q94 0 132 -47t38 -110v-263zM494 668q0 -49 -31 -77t-73 -28q-26 0 -85 25.5t-63 25.5q-15 0 -17 -17q-2 -16 -17 -26.5t-35 -10.5q-23 0 -40.5 16t-17.5 47v4q0 49 31 77t73 28q26 0 85 -25.5t62 -25.5
q15 0 18 17q4 16 18 26.5t33 10.5q23 0 41 -16t18 -47v-4z" />
    <glyph glyph-name="ograve" unicode="&#xf2;" horiz-adv-x="576" 
d="M34 252q0 128 71 195t183 67t183 -67t71 -195t-71 -195t-183 -67t-183 67t-71 195zM176 252q0 -73 31 -110t81 -37t81 37t31 110t-31 110t-81 37t-81 -37t-31 -110zM130 661q-31 27 -31 59q0 30 23 52.5t54 22.5q35 0 60 -33l90 -114q18 -23 18 -41q0 -23 -17.5 -40.5
t-41.5 -17.5q-22 0 -43 18z" />
    <glyph glyph-name="oacute" unicode="&#xf3;" horiz-adv-x="576" 
d="M34 252q0 128 71 195t183 67t183 -67t71 -195t-71 -195t-183 -67t-183 67t-71 195zM176 252q0 -73 31 -110t81 -37t81 37t31 110t-31 110t-81 37t-81 -37t-31 -110zM428 661l-112 -94q-21 -18 -43 -18q-24 0 -41.5 17.5t-17.5 40.5q0 18 18 41l90 114q25 33 60 33
q31 0 54 -22.5t23 -52.5q0 -32 -31 -59z" />
    <glyph glyph-name="ocircumflex" unicode="&#xf4;" horiz-adv-x="576" 
d="M34 252q0 128 71 195t183 67t183 -67t71 -195t-71 -195t-183 -67t-183 67t-71 195zM176 252q0 -73 31 -110t81 -37t81 37t31 110t-31 110t-81 37t-81 -37t-31 -110zM287 644l-93 -74q-16 -13 -38 -13q-21 0 -37 16t-16 37q0 19 18 37l120 124q20 20 46.5 20.5t47.5 -20.5
l120 -124q18 -18 18 -37q0 -21 -16 -37t-37 -16q-22 0 -38 13l-93 74h-2z" />
    <glyph glyph-name="otilde" unicode="&#xf5;" horiz-adv-x="576" 
d="M34 252q0 128 71 195t183 67t183 -67t71 -195t-71 -195t-183 -67t-183 67t-71 195zM176 252q0 -73 31 -110t81 -37t81 37t31 110t-31 110t-81 37t-81 -37t-31 -110zM478 668q0 -49 -31 -77t-73 -28q-26 0 -85 25.5t-63 25.5q-15 0 -17 -17q-2 -16 -17 -26.5t-35 -10.5
q-23 0 -40.5 16t-17.5 47v4q0 49 31 77t73 28q26 0 85 -25.5t62 -25.5q15 0 18 17q4 16 18 26.5t33 10.5q23 0 41 -16t18 -47v-4z" />
    <glyph glyph-name="odieresis" unicode="&#xf6;" horiz-adv-x="576" 
d="M34 252q0 128 71 195t183 67t183 -67t71 -195t-71 -195t-183 -67t-183 67t-71 195zM176 252q0 -73 31 -110t81 -37t81 37t31 110t-31 110t-81 37t-81 -37t-31 -110zM107 646q0 34 23 57t56 23q34 0 57 -23t23 -57t-23 -57t-57 -23q-33 0 -56 23t-23 57zM302 646
q0 34 23 57t57 23q33 0 56 -23t23 -57t-23 -57t-56 -23q-34 0 -57 23t-23 57z" />
    <glyph glyph-name="divide" unicode="&#xf7;" 
d="M209 150q0 38 26.5 64.5t64.5 26.5t64.5 -26.5t26.5 -64.5t-26.5 -64.5t-64.5 -26.5t-64.5 26.5t-26.5 64.5zM209 551q0 37 26.5 64t64.5 27t64.5 -27t26.5 -64t-26.5 -64t-64.5 -27t-64.5 27t-26.5 64zM108 281q-28 0 -48 20.5t-20 49.5t19.5 49t48.5 20h384
q29 0 48.5 -20t19.5 -50q0 -29 -20 -49t-48 -20h-384z" />
    <glyph glyph-name="oslash" unicode="&#xf8;" horiz-adv-x="577" 
d="M35 252q0 128 71 195t183 67q86 0 146 -38l19 21q12 13 29 16t32 -7q15 -11 18.5 -28t-9.5 -32l-27 -29q46 -65 46 -165q0 -128 -71 -195t-183 -67q-85 0 -146 37l-18 -19q-13 -14 -31 -17t-33 8q-14 11 -16.5 28t9.5 32l26 28q-45 64 -45 165zM401 252q0 26 -5 53
l-167 -183q24 -17 60 -17q50 0 81 37t31 110zM177 252q0 -33 5 -53l166 183q-26 17 -59 17q-50 0 -81 -37t-31 -110z" />
    <glyph glyph-name="ugrave" unicode="&#xf9;" horiz-adv-x="625" 
d="M223 457v-278q0 -75 67 -75q46 0 109 57v249h-35q-20 0 -33.5 14t-13.5 33t13.5 33t33.5 14h129q19 0 33 -14t14 -33l-1 -363h14q19 0 33 -14t14 -33t-14 -33t-33 -14h-105q-20 0 -33.5 14t-13.5 33v12q-71 -69 -157 -69q-81 0 -121 48.5t-40 108.5v263h-24q-19 0 -33 14
t-14 33t14 33t33 14h117q20 0 33.5 -14t13.5 -33zM149 661q-31 27 -31 59q0 30 23 52.5t54 22.5q35 0 60 -33l90 -114q18 -23 18 -41q0 -23 -17.5 -40.5t-41.5 -17.5q-22 0 -43 18z" />
    <glyph glyph-name="uacute" unicode="&#xfa;" horiz-adv-x="625" 
d="M223 457v-278q0 -75 67 -75q46 0 109 57v249h-35q-20 0 -33.5 14t-13.5 33t13.5 33t33.5 14h129q19 0 33 -14t14 -33l-1 -363h14q19 0 33 -14t14 -33t-14 -33t-33 -14h-105q-20 0 -33.5 14t-13.5 33v12q-71 -69 -157 -69q-81 0 -121 48.5t-40 108.5v263h-24q-19 0 -33 14
t-14 33t14 33t33 14h117q20 0 33.5 -14t13.5 -33zM428 661l-112 -94q-21 -18 -43 -18q-24 0 -41.5 17.5t-17.5 40.5q0 18 18 41l90 114q25 33 60 33q31 0 54 -22.5t23 -52.5q0 -32 -31 -59z" />
    <glyph glyph-name="ucircumflex" unicode="&#xfb;" horiz-adv-x="625" 
d="M223 457v-278q0 -75 67 -75q46 0 109 57v249h-35q-20 0 -33.5 14t-13.5 33t13.5 33t33.5 14h129q19 0 33 -14t14 -33l-1 -363h14q19 0 33 -14t14 -33t-14 -33t-33 -14h-105q-20 0 -33.5 14t-13.5 33v12q-71 -69 -157 -69q-81 0 -121 48.5t-40 108.5v263h-24q-19 0 -33 14
t-14 33t14 33t33 14h117q20 0 33.5 -14t13.5 -33zM309 644l-93 -74q-16 -13 -38 -13q-21 0 -37 16t-16 37q0 19 18 37l120 124q20 20 46.5 20.5t47.5 -20.5l120 -124q18 -18 18 -37q0 -21 -16 -37t-37 -16q-22 0 -38 13l-93 74h-2z" />
    <glyph glyph-name="udieresis" unicode="&#xfc;" horiz-adv-x="625" 
d="M223 457v-278q0 -75 67 -75q46 0 109 57v249h-35q-20 0 -33.5 14t-13.5 33t13.5 33t33.5 14h129q19 0 33 -14t14 -33l-1 -363h14q19 0 33 -14t14 -33t-14 -33t-33 -14h-105q-20 0 -33.5 14t-13.5 33v12q-71 -69 -157 -69q-81 0 -121 48.5t-40 108.5v263h-24q-19 0 -33 14
t-14 33t14 33t33 14h117q20 0 33.5 -14t13.5 -33zM109 646q0 34 23 57t56 23q34 0 57 -23t23 -57t-23 -57t-57 -23q-33 0 -56 23t-23 57zM304 646q0 34 23 57t57 23q33 0 56 -23t23 -57t-23 -57t-56 -23q-34 0 -57 23t-23 57z" />
    <glyph glyph-name="yacute" unicode="&#xfd;" horiz-adv-x="584" 
d="M4 457q0 19 14 33t33 14h187q20 0 33.5 -14t13.5 -33t-13.5 -33t-33.5 -14h-25l87 -269l84 269h-10q-20 0 -33.5 14t-13.5 33t13.5 33t33.5 14h159q19 0 33 -14t14 -33t-14 -33t-33 -14h-9l-145 -409q-44 -123 -85 -164q-56 -57 -142 -57q-51 0 -75.5 20t-24.5 49
t20.5 43t54.5 8q11 -2 31 -2q24 0 41 14.5t25 34.5l6 15l-160 448h-19q-19 0 -33 14t-14 33zM420 661l-112 -94q-21 -18 -43 -18q-24 0 -41.5 17.5t-17.5 40.5q0 18 18 41l90 114q25 33 60 33q31 0 54 -22.5t23 -52.5q0 -32 -31 -59z" />
    <glyph glyph-name="thorn" unicode="&#xfe;" horiz-adv-x="605" 
d="M343 -10q-93 0 -137 57v-152h54q20 0 33.5 -13.5t13.5 -33.5t-13.5 -33.5t-33.5 -13.5h-218q-20 0 -33.5 13.5t-13.5 33.5t13.5 33.5t33.5 13.5h24v711h-24q-20 0 -33.5 14t-13.5 33t13.5 33t33.5 14h117q19 0 33 -14t14 -33v-202q58 63 143 63q101 0 161.5 -71
t60.5 -194q0 -103 -59.5 -181t-168.5 -78zM316 399q-50 0 -80.5 -36.5t-30.5 -109.5t30.5 -110.5t80.5 -37.5q51 0 82 37.5t31 110.5t-31 109.5t-82 36.5z" />
    <glyph glyph-name="ydieresis" unicode="&#xff;" horiz-adv-x="584" 
d="M4 457q0 19 14 33t33 14h187q20 0 33.5 -14t13.5 -33t-13.5 -33t-33.5 -14h-25l87 -269l84 269h-10q-20 0 -33.5 14t-13.5 33t13.5 33t33.5 14h159q19 0 33 -14t14 -33t-14 -33t-33 -14h-9l-145 -409q-36 -115 -85 -164q-56 -57 -142 -57q-51 0 -75.5 20t-24.5 49
t20.5 43t54.5 8q11 -2 31 -2q24 0 41 14.5t25 34.5l6 15l-160 448h-19q-19 0 -33 14t-14 33zM310 646q0 34 23 57t57 23q33 0 56 -23t23 -57t-23 -57t-56 -23q-34 0 -57 23t-23 57zM115 646q0 34 23 57t56 23q34 0 57 -23t23 -57t-23 -57t-57 -23q-33 0 -56 23t-23 57z" />
    <glyph glyph-name="dotlessi" unicode="&#x131;" horiz-adv-x="337" 
d="M282 0h-208q-20 0 -33.5 14t-13.5 33t13.5 33t33.5 14h34v316h-34q-20 0 -33.5 14t-13.5 33t13.5 33t33.5 14h127q19 0 33 -14t14 -33v-363h34q20 0 33.5 -14t13.5 -33t-13.5 -33t-33.5 -14z" />
    <glyph glyph-name="Lslash" unicode="&#x141;" horiz-adv-x="642" 
d="M277 599v-189l81 29q22 8 42 -2t27 -33t-2.5 -44.5t-30.5 -29.5l-117 -41v-174h199l26 94q7 24 26.5 35.5t39.5 9t35.5 -17.5t14.5 -38l-7 -147q-1 -22 -15.5 -36.5t-37.5 -14.5h-469q-20 0 -35 14.5t-15 35.5t15 36t35 15h40v137l-14 -5q-21 -8 -41.5 2.5t-27.5 33.5
t2.5 44t31.5 29l49 17v240h-40q-20 0 -35 15t-15 36t15 35.5t35 14.5h228q20 0 35 -14.5t15 -35.5t-15 -36t-35 -15h-40z" />
    <glyph glyph-name="lslash" unicode="&#x142;" horiz-adv-x="334" 
d="M261 0h-188q-19 0 -33 14t-14 33t14 33t33 14h24v168l-33 -11q-18 -6 -35 3t-24 28q-6 19 2.5 37t26.5 25l63 22v240h-34q-19 0 -33 14t-14 33t14 33t33 14h127q20 0 33.5 -14t13.5 -33v-239l33 12q19 7 35.5 -1.5t23.5 -28.5q6 -19 -2.5 -37t-25.5 -25l-64 -23v-217h24
q19 0 33 -14t14 -33t-14 -33t-33 -14z" />
    <glyph glyph-name="OE" unicode="&#x152;" horiz-adv-x="1085" 
d="M1040 51q-1 -22 -14.5 -36.5t-38.5 -14.5h-592q-154 0 -253.5 89.5t-99.5 260.5t99.5 260.5t253.5 89.5h565q20 0 35 -15t15 -36v-139q0 -24 -16.5 -38.5t-37.5 -15t-39.5 13.5t-21.5 39l-10 76h-239v-181h88v42q0 23 15.5 39t40.5 16q26 0 40.5 -16t14.5 -39v-195
q0 -23 -14.5 -39t-40.5 -16q-25 0 -40.5 16t-15.5 39v45h-88v-181h259l26 94q7 24 26.5 35.5t39.5 9t35.5 -17.5t14.5 -38zM498 585h-67q-233 0 -233 -235t233 -235h67v470z" />
    <glyph glyph-name="oe" unicode="&#x153;" horiz-adv-x="900" 
d="M664 108q40 0 81.5 18.5t59.5 18.5h2q27 0 41 -17t14 -40q0 -36 -45 -62q-65 -36 -160 -36q-122 0 -190 82q-65 -82 -181 -82q-112 0 -182 66.5t-70 195.5t70 195.5t182 66.5q115 0 181 -83q64 83 179 83q100 0 160.5 -63t60.5 -167q0 -66 -65 -66h-259q2 -49 34 -79.5
t87 -30.5zM176 252q0 -73 31 -110t81 -37t81 37t31 110t-31 110t-81 37t-81 -37t-31 -110zM639 405q-34 0 -59.5 -23.5t-29.5 -59.5h177q-3 43 -27.5 63t-60.5 20z" />
    <glyph glyph-name="Scaron" unicode="&#x160;" horiz-adv-x="632" 
d="M268 444q16 -6 76 -23.5t99 -31.5q153 -55 153 -178q0 -96 -70 -158.5t-205 -62.5q-123 0 -201 24q-34 11 -48.5 29.5t-14.5 49.5v113q0 25 18 41t42 16t41.5 -14.5t22.5 -40.5l17 -90q56 -13 113 -13q132 0 132 82q0 17 -7.5 30.5t-16 21.5t-28.5 16.5t-32 12t-40 10.5
q-97 25 -138 42q-61 26 -96 69t-35 115q0 94 74 150t195 56q104 0 186 -27q52 -17 47 -66l-8 -102q-2 -25 -19 -39.5t-38 -14.5q-22 0 -39.5 14t-19.5 40l-7 71q-57 12 -99 12q-62 0 -94 -21.5t-32 -55.5q0 -28 17.5 -46t54.5 -31zM311 917h2l93 74q16 13 38 13q21 0 37 -16
t16 -37q0 -19 -18 -37l-120 -124q-21 -21 -47.5 -20.5t-46.5 20.5l-120 124q-18 18 -18 37q0 21 16 37t37 16q22 0 38 -13z" />
    <glyph glyph-name="scaron" unicode="&#x161;" horiz-adv-x="508" 
d="M372 289q104 -33 104 -130q0 -73 -57 -121t-170 -48q-89 0 -155 18q-53 15 -51 66l3 65q1 26 18.5 40t40.5 14q22 0 37.5 -12.5t18.5 -36.5l5 -41q36 -9 74 -9q94 0 94 50q0 33 -59 43q-115 20 -156 41q-78 39 -78 130q0 67 56 111.5t162 44.5q72 0 131 -11
q57 -11 54 -71l-3 -60q-1 -22 -16.5 -34t-36.5 -12q-48 0 -54 39l-7 42q-38 6 -61 6q-88 0 -88 -46q0 -16 10.5 -26t19 -13t22.5 -6q7 -2 59 -13t83 -20zM244 712h2l93 74q16 13 38 13q21 0 37 -16t16 -37q0 -19 -18 -37l-120 -124q-21 -21 -47.5 -20.5t-46.5 20.5l-120 124
q-18 18 -18 37q0 21 16 37t37 16q22 0 38 -13z" />
    <glyph glyph-name="Ydieresis" unicode="&#x178;" horiz-adv-x="716" 
d="M429 101h60q20 0 35 -15t15 -36t-15 -35.5t-35 -14.5h-268q-20 0 -35 14.5t-15 35.5t15 36t35 15h60v155l-196 343h-30q-20 0 -35 15t-15 36t15 35.5t35 14.5h220q20 0 35 -14.5t15 -35.5t-15 -36t-35 -15h-40l129 -235h7l131 235h-42q-20 0 -35 15t-15 36t15 35.5
t35 14.5h208q20 0 35 -14.5t15 -35.5t-15 -36t-35 -15h-30l-209 -343v-155zM376 851q0 34 23 57t57 23q33 0 56 -23t23 -57t-23 -57t-56 -23q-34 0 -57 23t-23 57zM181 851q0 34 23 57t56 23q34 0 57 -23t23 -57t-23 -57t-57 -23q-33 0 -56 23t-23 57z" />
    <glyph glyph-name="Zcaron" unicode="&#x17d;" horiz-adv-x="674" 
d="M193 585l-15 -91q-6 -35 -35 -47t-55.5 3.5t-26.5 49.5l-2 149q0 21 15 36t35 15h408q48 0 74 -25t24.5 -60.5t-28.5 -66.5l-378 -433h283l26 103q9 33 37.5 43t53.5 -7t25 -51l-2 -152q0 -22 -14 -36.5t-40 -14.5h-448q-47 0 -72 26t-22.5 61.5t27.5 64.5l379 433h-249z
M329 917h2l93 74q16 13 38 13q21 0 37 -16t16 -37q0 -19 -18 -37l-120 -124q-21 -21 -47.5 -20.5t-46.5 20.5l-120 124q-18 18 -18 37q0 21 16 37t37 16q22 0 38 -13z" />
    <glyph glyph-name="zcaron" unicode="&#x17e;" horiz-adv-x="540" 
d="M116 0q-39 0 -59 24t-18 53.5t20 47.5l265 272h-155l-5 -63q-2 -32 -31 -44.5t-56.5 1t-27.5 45.5v121q0 19 13.5 33t33.5 14h316q40 0 61 -22t18.5 -51t-24.5 -52l-265 -272h171l13 78q7 32 36 42t55 -6t24 -48l-5 -126q0 -19 -14.5 -33t-34.5 -14h-331zM274 712h2
l93 74q16 13 38 13q21 0 37 -16t16 -37q0 -19 -18 -37l-120 -124q-21 -21 -47.5 -20.5t-46.5 20.5l-120 124q-18 18 -18 37q0 21 16 37t37 16q22 0 38 -13z" />
    <glyph glyph-name="florin" unicode="&#x192;" horiz-adv-x="477" 
d="M161 564q0 65 40 110.5t131 45.5q64 0 103 -22q29 -17 29 -49q0 -26 -19 -42t-43 -13q-8 1 -26 4.5t-27 3.5q-29 0 -38.5 -17t-9.5 -49v-192h78q19 0 33 -14t14 -33t-14 -33t-33 -14h-78v-313q0 -65 -40 -110.5t-131 -45.5q-64 0 -103 22q-29 17 -29 49q0 26 19 42t43 13
q8 -1 26 -4.5t27 -3.5q29 0 38.5 17t9.5 49v285h-78q-19 0 -33 14t-14 33t14 33t33 14h78v220z" />
    <glyph glyph-name="circumflex" unicode="&#x2c6;" horiz-adv-x="510" 
d="M254 644l-93 -74q-16 -13 -38 -13q-21 0 -37 16t-16 37q0 19 18 37l120 124q20 20 46.5 20.5t47.5 -20.5l120 -124q18 -18 18 -37q0 -21 -16 -37t-37 -16q-22 0 -38 13l-93 74h-2z" />
    <glyph glyph-name="caron" unicode="&#x2c7;" horiz-adv-x="510" 
d="M254 712h2l93 74q16 13 38 13q21 0 37 -16t16 -37q0 -19 -18 -37l-120 -124q-21 -21 -47.5 -20.5t-46.5 20.5l-120 124q-18 18 -18 37q0 21 16 37t37 16q22 0 38 -13z" />
    <glyph glyph-name="breve" unicode="&#x2d8;" horiz-adv-x="444" 
d="M222 553q-88 0 -130 42.5t-42 101.5v7q0 27 17.5 44t41.5 17q23 0 38.5 -12t18.5 -34q6 -46 56 -46t56 46q3 22 18.5 34t38.5 12q24 0 41.5 -17t17.5 -44v-7q0 -59 -42 -101.5t-130 -42.5z" />
    <glyph glyph-name="dotaccent" unicode="&#x2d9;" horiz-adv-x="285" 
d="M49 635q0 39 27 66t65 27q39 0 66 -27t27 -66q0 -38 -27 -65t-66 -27q-38 0 -65 27t-27 65z" />
    <glyph glyph-name="ring" unicode="&#x2da;" horiz-adv-x="424" 
d="M212 620q24 0 42.5 14.5t18.5 52.5t-18.5 52.5t-42.5 14.5t-42.5 -14.5t-18.5 -52.5t18.5 -52.5t42.5 -14.5zM212 837q70 0 116 -40.5t46 -109.5t-46 -109.5t-116 -40.5t-116 40.5t-46 109.5t46 109.5t116 40.5z" />
    <glyph glyph-name="ogonek" unicode="&#x2db;" horiz-adv-x="351" 
d="M301 -196q0 -16 -11 -29.5t-29 -17.5q-32 -8 -63 -8q-62 0 -105 31t-43 91q0 38 20 68t53 48.5t66 29.5t69 17l17 -9v-24q-43 -21 -73 -48.5t-30 -56.5q0 -24 17.5 -37t46.5 -13q4 0 11.5 0.5t10.5 0.5h2q19 0 30 -12.5t11 -30.5z" />
    <glyph glyph-name="tilde" unicode="&#x2dc;" horiz-adv-x="497" 
d="M438 668q0 -49 -31 -77t-73 -28q-26 0 -85 25.5t-63 25.5q-15 0 -17 -17q-2 -16 -17 -26.5t-35 -10.5q-23 0 -40.5 16t-17.5 47v4q0 49 31 77t73 28q26 0 85 -25.5t62 -25.5q15 0 18 17q4 16 18 26.5t33 10.5q23 0 41 -16t18 -47v-4z" />
    <glyph glyph-name="hungarumlaut" unicode="&#x2dd;" horiz-adv-x="616" 
d="M508 661l-112 -94q-21 -18 -43 -18q-24 0 -41.5 17.5t-17.5 40.5q0 18 18 41l90 114q25 33 60 33q31 0 54 -22.5t23 -52.5q0 -32 -31 -59zM264 661l-112 -94q-21 -18 -43 -18q-24 0 -41.5 17.5t-17.5 40.5q0 18 18 41l90 114q25 33 60 33q31 0 54 -22.5t23 -52.5
q0 -32 -31 -59z" />
    <glyph glyph-name="pi" unicode="&#x3c0;" horiz-adv-x="695" 
d="M674 62q0 -33 -29 -50q-39 -22 -108 -22q-160 0 -160 153v267h-114v-66q0 -179 -78 -307q-30 -48 -73 -48q-28 0 -48.5 19.5t-20.5 46.5q0 20 11 38q72 115 72 236v81h-54q-20 0 -33.5 14t-13.5 33t13.5 33t33.5 14h534q20 0 33.5 -14t13.5 -33t-13.5 -33t-33.5 -14h-89
v-237q0 -33 8.5 -49.5t37.5 -16.5q8 0 27.5 4t29.5 4h2q22 0 37 -14.5t15 -38.5z" />
    <glyph glyph-name="endash" unicode="&#x2013;" horiz-adv-x="673" 
d="M553 280h-433q-28 0 -48 20.5t-20 49.5t19.5 49t48.5 20h433q29 0 48.5 -20t19.5 -49t-20 -49.5t-48 -20.5z" />
    <glyph glyph-name="emdash" unicode="&#x2014;" horiz-adv-x="1033" 
d="M913 280h-793q-28 0 -48 20.5t-20 49.5t19.5 49t48.5 20h793q29 0 48.5 -20t19.5 -49t-20 -49.5t-48 -20.5z" />
    <glyph glyph-name="quoteleft" unicode="&#x2018;" horiz-adv-x="281" 
d="M144 367q-47 0 -78.5 32t-31.5 84q0 66 37.5 126t97.5 94q24 12 41.5 2t17.5 -30q0 -13 -16 -29q-48 -48 -72 -92q9 1 14 1q39 0 63.5 -27t24.5 -65q0 -40 -29 -68t-69 -28z" />
    <glyph glyph-name="quoteright" unicode="&#x2019;" horiz-adv-x="281" 
d="M140 710q47 0 78.5 -32t31.5 -84q0 -66 -37.5 -126t-97.5 -94q-24 -12 -41.5 -2t-17.5 30q0 13 16 29q48 48 72 92q-9 -1 -14 -1q-39 0 -63.5 27t-24.5 65q0 40 29 68t69 28z" />
    <glyph glyph-name="quotesinglbase" unicode="&#x201a;" horiz-adv-x="287" 
d="M136 192q47 0 78.5 -32t31.5 -84q0 -66 -37.5 -126t-97.5 -94q-24 -12 -41.5 -2t-17.5 30q0 13 16 29q48 48 72 92q-9 -1 -14 -1q-39 0 -63.5 27t-24.5 65q0 40 29 68t69 28z" />
    <glyph glyph-name="quotedblleft" unicode="&#x201c;" horiz-adv-x="538" 
d="M401 367q-47 0 -78.5 32t-31.5 84q0 66 37.5 126t97.5 94q24 12 41.5 2t17.5 -30q0 -13 -16 -29q-48 -48 -72 -92q9 1 14 1q39 0 63.5 -27t24.5 -65q0 -40 -29 -68t-69 -28zM144 367q-47 0 -78.5 32t-31.5 84q0 66 37.5 126t97.5 94q24 12 41.5 2t17.5 -30q0 -13 -16 -29
q-48 -48 -72 -92q9 1 14 1q39 0 63.5 -27t24.5 -65q0 -40 -29 -68t-69 -28z" />
    <glyph glyph-name="quotedblright" unicode="&#x201d;" horiz-adv-x="538" 
d="M397 710q47 0 78.5 -32t31.5 -84q0 -66 -37.5 -126t-97.5 -94q-24 -12 -41.5 -2t-17.5 30q0 13 16 29q48 48 72 92q-9 -1 -14 -1q-39 0 -63.5 27t-24.5 65q0 40 29 68t69 28zM140 710q47 0 78.5 -32t31.5 -84q0 -66 -37.5 -126t-97.5 -94q-24 -12 -41.5 -2t-17.5 30
q0 13 16 29q48 48 72 92q-9 -1 -14 -1q-39 0 -63.5 27t-24.5 65q0 40 29 68t69 28z" />
    <glyph glyph-name="quotedblbase" unicode="&#x201e;" horiz-adv-x="544" 
d="M393 192q47 0 78.5 -32t31.5 -84q0 -66 -37.5 -126t-97.5 -94q-24 -12 -41.5 -2t-17.5 30q0 13 16 29q48 48 72 92q-9 -1 -14 -1q-39 0 -63.5 27t-24.5 65q0 40 29 68t69 28zM136 192q47 0 78.5 -32t31.5 -84q0 -66 -37.5 -126t-97.5 -94q-24 -12 -41.5 -2t-17.5 30
q0 13 16 29q48 48 72 92q-9 -1 -14 -1q-39 0 -63.5 27t-24.5 65q0 40 29 68t69 28z" />
    <glyph glyph-name="dagger" unicode="&#x2020;" horiz-adv-x="576" 
d="M96 345q-28 0 -48 20.5t-20 49.5t19.5 49t48.5 20h121v158q0 28 21 48t51 20q29 0 50 -20t21 -48v-158h120q29 0 48.5 -20t19.5 -50q0 -29 -20 -49t-48 -20h-120v-287q0 -28 -21.5 -48t-50.5 -20t-50 20t-21 48v287h-121z" />
    <glyph glyph-name="daggerdbl" unicode="&#x2021;" horiz-adv-x="588" 
d="M366 -82q0 -28 -21 -48t-50 -20q-30 0 -51 20t-21 48v158h-121q-29 0 -48.5 20t-19.5 49t20 49.5t48 20.5h121v130h-121q-28 0 -48 20.5t-20 49.5t19.5 49t48.5 20h121v158q0 28 21 48t51 20q29 0 50 -20t21 -48v-158h120q29 0 48.5 -20t19.5 -50q0 -29 -20 -49t-48 -20
h-120v-130h120q28 0 48 -20t20 -49q0 -30 -19.5 -50t-48.5 -20h-120v-158z" />
    <glyph glyph-name="bullet" unicode="&#x2022;" horiz-adv-x="387" 
d="M66 355q0 53 37.5 90.5t89.5 37.5q53 0 90.5 -37.5t37.5 -90.5q0 -52 -37.5 -89.5t-90.5 -37.5t-90 37t-37 90z" />
    <glyph glyph-name="ellipsis" unicode="&#x2026;" horiz-adv-x="972" 
d="M732 91q0 42 29.5 71.5t71.5 29.5t71.5 -29.5t29.5 -71.5t-29.5 -71.5t-71.5 -29.5t-71.5 29.5t-29.5 71.5zM385 91q0 42 29.5 71.5t71.5 29.5t71.5 -29.5t29.5 -71.5t-29.5 -71.5t-71.5 -29.5t-71.5 29.5t-29.5 71.5zM38 91q0 42 29.5 71.5t71.5 29.5t71.5 -29.5
t29.5 -71.5t-29.5 -71.5t-71.5 -29.5t-71.5 29.5t-29.5 71.5z" />
    <glyph glyph-name="perthousand" unicode="&#x2030;" horiz-adv-x="1161" 
d="M966 -10q-71 0 -118.5 47t-47.5 133q0 85 47.5 132t118.5 47t118.5 -47t47.5 -132q0 -86 -47.5 -133t-118.5 -47zM966 256q-61 0 -61 -86t61 -86t61 86t-61 86zM594 256q-61 0 -61 -86t61 -86t61 86t-61 86zM594 -10q-71 0 -118.5 47t-47.5 133q0 85 47.5 132t118.5 47
t118.5 -47t47.5 -132q0 -86 -47.5 -133t-118.5 -47zM98 76l518 617q14 15 35.5 17t37.5 -11q17 -14 19 -36t-12 -37l-518 -617q-14 -17 -35 -19t-38 12q-16 14 -18.5 36t11.5 38zM198 351q-71 0 -118.5 47t-47.5 133q0 85 47.5 132t118.5 47t118.5 -47t47.5 -132
q0 -86 -47.5 -133t-118.5 -47zM198 617q-61 0 -61 -86t61 -86t61 86t-61 86z" />
    <glyph glyph-name="guilsinglleft" unicode="&#x2039;" horiz-adv-x="386" 
d="M207 253v-1l119 -146q29 -39 8.5 -77.5t-61.5 -38.5q-37 0 -63 32l-180 217q-6 7 -6 14t6 13l180 216q26 32 63 32q41 0 61.5 -38.5t-8.5 -77.5z" />
    <glyph glyph-name="guilsinglright" unicode="&#x203a;" horiz-adv-x="386" 
d="M178 253l-119 145q-29 39 -8.5 77.5t61.5 38.5q37 0 63 -32l180 -216q6 -6 6 -13t-6 -14l-180 -217q-26 -32 -63 -32q-41 0 -61.5 38.5t8.5 77.5l119 146v1z" />
    <glyph glyph-name="fraction" unicode="&#x2044;" horiz-adv-x="680" 
d="M22 81l556 612q14 16 37 17t40 -14q16 -14 17 -36.5t-13 -38.5l-556 -613q-14 -17 -36.5 -18t-38.5 14q-17 15 -18.5 38t12.5 39z" />
    <glyph glyph-name="Euro" unicode="&#x20ac;" horiz-adv-x="697" 
d="M234 384q-1 -13 -1 -39v-27h163q20 0 34.5 -14t14.5 -36q0 -20 -14.5 -34.5t-34.5 -14.5h-142q41 -99 157 -99q37 0 71 14.5t60 29t44 14.5q26 0 44 -19.5t18 -44.5q0 -34 -29 -55q-95 -69 -232 -69q-105 0 -186 58t-110 171h-27q-20 0 -34.5 14.5t-14.5 34.5
q0 22 14.5 36t34.5 14h13v24q0 28 1 42h-14q-20 0 -34.5 14.5t-14.5 34.5q0 21 14.5 35.5t34.5 14.5h29q28 109 101 168t178 59q42 0 83.5 -16.5t62.5 -44.5l7 25q4 17 19.5 26.5t35.5 9.5q26 0 44 -16.5t18 -48.5v-173q0 -26 -17 -42.5t-41 -16.5q-52 0 -66 48
q-21 69 -47 100t-84 31q-101 0 -136 -109h145q20 0 34.5 -14.5t14.5 -35.5q0 -20 -14.5 -34.5t-34.5 -14.5h-162z" />
    <glyph glyph-name="trademark" unicode="&#x2122;" horiz-adv-x="1115" 
d="M695 280h-136q-19 0 -30.5 13t-11.5 27t11.5 27.5t30.5 13.5h15v258h-15q-19 0 -30.5 13.5t-11.5 27.5t11.5 27t30.5 13h119q43 0 54 -30l59 -144l60 144q12 30 54 30h116q19 0 30 -13t11 -27q0 -15 -11 -28t-30 -13h-15v-258h15q19 0 30 -13t11 -28q0 -14 -11 -27
t-30 -13h-143q-19 0 -30 13t-11 27q0 15 11 28t30 13h34v254l-76 -178q-16 -34 -48 -34q-35 0 -50 34l-77 178v-254h34q19 0 30.5 -13.5t11.5 -27.5t-11.5 -27t-30.5 -13zM312 361h27q19 0 30.5 -13.5t11.5 -27.5t-11.5 -27t-30.5 -13h-149q-19 0 -30 13t-11 27q0 15 11 28
t30 13h28v258h-69l-12 -52q-5 -20 -24 -26.5t-36 3.5t-17 30l2 95q1 13 10 22t21 9h342q13 0 22 -9t10 -22l2 -95q1 -20 -17 -30t-37.5 -3.5t-23.5 26.5l-10 52h-69v-258z" />
    <glyph glyph-name="Omega" unicode="&#x2126;" horiz-adv-x="764" 
d="M382 588q-86 0 -138.5 -45.5t-52.5 -119.5q0 -53 34.5 -92.5t89.5 -45.5q14 -1 29 -14.5t15 -41.5v-179q0 -21 -15 -35.5t-35 -14.5h-160q-20 0 -35 14.5t-15 35.5t15 36t35 15h81v72q-78 22 -133 87t-55 158q0 73 30.5 130.5t80.5 92t108.5 52t120.5 17.5t120.5 -17.5
t108.5 -52t80.5 -92t30.5 -130.5q0 -93 -55 -158t-133 -87v-72h81q20 0 35 -15t15 -36t-15 -35.5t-35 -14.5h-160q-20 0 -35 14.5t-15 35.5v179q0 28 15 41.5t29 14.5q56 6 89.5 45t33.5 93q0 74 -52 119.5t-138 45.5z" />
    <glyph glyph-name="partialdiff" unicode="&#x2202;" horiz-adv-x="576" 
d="M369 484q-30 50 -63 87t-91 88q-24 20 -24 51q0 25 17 42.5t49.5 14.5t68.5 -34q95 -79 155.5 -199t60.5 -273q0 -123 -69.5 -197t-177.5 -74q-114 0 -187.5 67t-73.5 194q0 124 66.5 193.5t175.5 69.5q24 0 53 -10.5t40 -19.5zM176 252q0 -73 31 -110t81 -37t81 37
t31 110t-31 110t-81 37t-81 -37t-31 -110z" />
    <glyph glyph-name="Delta" unicode="&#x2206;" horiz-adv-x="889" 
d="M615 115l-177 484l-169 -484h346zM86 0q-25 0 -42.5 16.5t-17.5 40.5t17.5 41t42.5 17h42l220 585h189l224 -585h42q25 0 42.5 -17t17.5 -41t-17.5 -40.5t-42.5 -16.5h-717z" />
    <glyph glyph-name="product" unicode="&#x220f;" horiz-adv-x="849" 
d="M758 599h-40v-498h40q20 0 35 -15t15 -36t-15 -35.5t-35 -14.5h-228q-20 0 -35 14.5t-15 35.5t15 36t35 15h40v484h-291v-484h40q20 0 35 -15t15 -36t-15 -35.5t-35 -14.5h-228q-20 0 -35 14.5t-15 35.5t15 36t35 15h40v498h-40q-20 0 -35 15t-15 36t15 35.5t35 14.5h667
q20 0 35 -14.5t15 -35.5t-15 -36t-35 -15z" />
    <glyph glyph-name="summation" unicode="&#x2211;" horiz-adv-x="683" 
d="M412 260l-199 -271h277l18 104q4 25 24.5 38t42.5 11t40 -17.5t17 -40.5l4 -159q-1 -21 -15.5 -36t-34.5 -15h-477q-51 0 -67.5 44t15.5 82l209 287l-209 287q-32 38 -15.5 82t67.5 44h467q20 0 34.5 -15t15.5 -36l-4 -159q1 -25 -17 -40.5t-40 -17.5t-42.5 11t-24.5 38
l-18 104h-267l199 -271v-54z" />
    <glyph glyph-name="minus" unicode="&#x2212;" 
d="M108 281q-28 0 -48 20.5t-20 49.5t19.5 49t48.5 20h384q29 0 48.5 -20t19.5 -50q0 -29 -20 -49t-48 -20h-384z" />
    <glyph glyph-name="radical" unicode="&#x221a;" horiz-adv-x="733" 
d="M341 -194q-46 0 -77 28t-41 62l-121 379h-43q-21 0 -36.5 15t-15.5 36t15.5 35.5t36.5 14.5h123q21 0 38.5 -14t22.5 -34l100 -368h7l222 743q20 66 80 66q37 0 61 -27.5t11 -66.5l-259 -782q-10 -33 -44 -60t-80 -27z" />
    <glyph glyph-name="infinity" unicode="&#x221e;" horiz-adv-x="1014" 
d="M507 457q20 67 80 113.5t133 46.5q109 0 175.5 -74.5t66.5 -195.5q0 -120 -66.5 -194.5t-175.5 -74.5q-70 0 -131.5 48t-81.5 112q-20 -64 -81.5 -112t-131.5 -48q-109 0 -175.5 74.5t-66.5 194.5q0 121 66.5 195.5t175.5 74.5q73 0 133 -46.5t80 -113.5zM716 210
q49 0 77.5 38.5t28.5 98.5t-29.5 99.5t-76.5 39.5q-35 0 -73.5 -41.5t-60.5 -97.5q22 -54 60.5 -95.5t73.5 -41.5zM298 210q36 0 74.5 40t59.5 97q-21 59 -59.5 99t-74.5 40q-47 0 -76.5 -39.5t-29.5 -99.5t28.5 -98.5t77.5 -38.5z" />
    <glyph glyph-name="integral" unicode="&#x222b;" horiz-adv-x="482" 
d="M311 -63q0 -65 -40 -110.5t-131 -45.5q-64 0 -103 22q-29 17 -29 49q0 26 19 42t43 13q8 -1 26 -4.5t27 -3.5q29 0 38.5 17t9.5 49v599q0 65 40 110.5t131 45.5q64 0 103 -22q29 -17 29 -49q0 -26 -19 -42t-43 -13q-8 1 -26 4.5t-27 3.5q-29 0 -38.5 -17t-9.5 -49v-599z
" />
    <glyph glyph-name="approxequal" unicode="&#x2248;" 
d="M167 576q38 0 139.5 -37.5t108.5 -37.5q23 0 23 27q0 22 17 35t40 13q26 0 45.5 -17.5t19.5 -49.5v-6q0 -65 -35.5 -99t-91.5 -34q-38 0 -139.5 37.5t-108.5 37.5q-24 0 -24 -28q0 -21 -17.5 -34t-39.5 -13q-26 0 -45.5 17.5t-19.5 49.5v5q0 66 35.5 100t92.5 34z
M167 330q38 0 139.5 -37.5t108.5 -37.5q23 0 23 27q0 22 17 35t40 13q26 0 45.5 -17.5t19.5 -49.5v-6q0 -65 -35.5 -99t-91.5 -34q-38 0 -139.5 37.5t-108.5 37.5q-24 0 -24 -28q0 -21 -17.5 -34t-39.5 -13q-26 0 -45.5 17.5t-19.5 49.5v5q0 66 35.5 100t92.5 34z" />
    <glyph glyph-name="notequal" unicode="&#x2260;" 
d="M108 404q-28 0 -48 20.5t-20 49.5t19.5 49t48.5 20h191l34 94q8 22 28.5 31.5t42.5 1.5q22 -7 32 -28t2 -42l-21 -57h75q29 0 48.5 -20t19.5 -50q0 -29 -20 -49t-48 -20h-125l-39 -108h164q29 0 48.5 -20t19.5 -50q0 -29 -20 -49t-48 -20h-215l-31 -87q-7 -21 -28.5 -30
t-42.5 -2q-22 8 -31 28t-1 41l18 50h-53q-28 0 -48 20.5t-20 49.5t19.5 49t48.5 20h103l38 108h-141z" />
    <glyph glyph-name="lessequal" unicode="&#x2264;" 
d="M487 0h-384q-28 0 -48 20.5t-20 49.5t19.5 49t48.5 20h384q29 0 48.5 -20t19.5 -50q0 -29 -20 -49t-48 -20zM274 451l238 -130q34 -19 42 -52.5t-12.5 -60t-60.5 -26.5q-25 0 -66 23l-337 183q-44 24 -44 63t44 63l337 183q41 23 66 23q40 0 60.5 -26.5t12.5 -60
t-42 -52.5z" />
    <glyph glyph-name="greaterequal" unicode="&#x2265;" 
d="M325 451l-238 130q-34 19 -42 52.5t12.5 60t60.5 26.5q25 0 66 -23l337 -183q44 -24 44 -63t-44 -63l-337 -183q-41 -23 -66 -23q-40 0 -60.5 26.5t-12.5 60t42 52.5zM112 0q-28 0 -48 20t-20 49q0 30 19.5 50t48.5 20h384q29 0 48.5 -20t19.5 -49t-20 -49.5t-48 -20.5
h-384z" />
    <glyph glyph-name="lozenge" unicode="&#x25ca;" horiz-adv-x="670" 
d="M485 356l-150 284l-151 -284l151 -284zM646 356l-245 -447q-25 -41 -67 -41q-43 0 -65 41l-245 447l245 447q22 41 65 41q42 0 67 -41z" />
    <glyph glyph-name="s_t" unicode="&#xfb06;" horiz-adv-x="865" 
d="M372 289q104 -33 104 -130q0 -73 -57 -121t-170 -48q-89 0 -155 18q-53 15 -51 66l3 65q1 26 18.5 40t40.5 14q22 0 37.5 -12.5t18.5 -36.5l5 -41q36 -9 74 -9q94 0 94 50q0 33 -59 43q-115 20 -156 41q-78 39 -78 130q0 55 38 95.5t111 54.5v57q0 78 45.5 120t119.5 42
h295q20 0 33.5 -13.5t13.5 -33.5v-176h99q20 0 33.5 -14t13.5 -33t-13.5 -33t-33.5 -14h-99v-237q0 -33 8.5 -49.5t37.5 -16.5q9 0 28 3.5t26 4.5q23 2 40 -13t17 -41q0 -32 -29 -49q-39 -22 -108 -22q-160 0 -160 153v267h-38q-19 0 -33 14t-14 33t14 33t33 14h38v124h-146
q-63 0 -90 -21.5t-27 -80.5v-13q43 -1 96 -10q57 -11 54 -71l-3 -60q-1 -22 -16.5 -34t-36.5 -12q-48 0 -54 39l-7 42q-38 6 -61 6q-88 0 -88 -46q0 -16 10.5 -26t19 -13t22.5 -6q7 -2 59 -13t83 -20z" />
    <glyph glyph-name="apple" horiz-adv-x="1209" 
d="M1058 734q48 -49 74.5 -118t26.5 -143q0 -85 -32 -168t-84 -151.5t-121.5 -130t-141.5 -107t-146 -78.5q-16 -8 -31 -8t-31 8q-97 44 -187 107.5t-166.5 144.5t-122.5 181.5t-46 203.5q0 74 27 143t75 119q91 93 235 93q124 0 222 -86q94 84 217 84q141 0 232 -94z
M1115 474q0 67 -24.5 128.5t-69.5 105.5q-82 79 -198 79q-121 0 -218 -87q-102 88 -221 88q-114 0 -195 -78q-45 -44 -70 -106.5t-25 -130.5q0 -137 90 -268q67 -98 171 -180q53 -43 113.5 -80.5t87.5 -51t38 -17.5q9 -4 18 0q11 4 38 17.5t88 51t115 79.5q106 83 171 179
q91 133 91 271zM823 751q103 0 172 -69q83 -81 83 -209q0 -125 -84 -250q-62 -89 -164 -170q-108 -86 -227 -143q-116 56 -226 144q-103 82 -163 172q-83 120 -83 248t84 210q71 68 172 68t192 -77q-55 -58 -99 -135q-77 -135 -123 -319l-50 10q-7 2 -13.5 -2t-7.5 -11
q-4 -16 14 -20l135 -29q16 -4 20 13q3 17 -13 21l-48 10q39 155 100 274q52 -19 109 -19q60 0 112 20q62 -124 98 -276l-48 -10q-16 -4 -14 -20q4 -18 21 -14l135 28q17 4 13 20q-1 7 -7 11.5t-13 2.5l-49 -10l-1 1v2q-47 186 -123 320q-43 78 -95 131q90 77 191 77zM752 97
q0 7 -5 12.5t-13 5.5h-179q34 18 57 32.5t53.5 39t46.5 54.5t16 63q0 50 -33 87t-90 37q-56 0 -93.5 -32.5t-37.5 -83.5q0 -36 24.5 -64.5t62.5 -28.5q30 0 54 19t24 54q0 23 -11.5 33.5t-24.5 10.5q-14 0 -23.5 -9.5t-9.5 -22.5q0 -17 15 -27q1 -1 0 -6.5t-7.5 -10.5
t-18.5 -5q-22 0 -34.5 18.5t-12.5 39.5q0 36 25 58t66 22q40 0 62.5 -26t22.5 -62q0 -68 -109 -139q-22 -14 -46.5 -27t-38.5 -20.5t-15 -8.5q-8 -10 -4 -20q5 -11 17 -11h241q19 0 19 18zM796 595l26 -50q11 -22 35 -30q29 -8 55 7q25 13 34.5 39.5t-2.5 49.5l-33 67
q-3 7 -11 9t-14 -1l-135 -74q-16 -9 -7 -25t25 -7zM1036 403l-40 89q-3 7 -10 10q-8 2 -14 -1l-129 -62q-16 -9 -9 -24l47 -105q7 -16 23 -9q7 3 10 10t0 13l-40 90l33 15l15 -33q7 -16 24 -9q16 7 9 24l-15 34l31 15l32 -72q7 -16 24 -9q16 7 9 24zM603 506q-48 0 -92 14
q47 82 94 130q43 -44 93 -129q-43 -15 -95 -15zM357 597l-98 -22q-18 -4 -14 -22t22 -14l104 23l9 -22q-7 -9 -7 -18q0 -10 7.5 -18t18.5 -8t17 8q13 12 4 34l-63 159q-7 17 -24 10t-10 -24zM214 362l17 50l114 -40q18 -7 23 11q3 7 -0.5 14t-10.5 9l-115 41l15 47
q5 18 -12 23q-7 2 -14 -1.5t-9 -10.5l-43 -132q-2 -7 1.5 -14t10.5 -9q18 -5 23 12zM854 561l-26 52l59 32l25 -50q5 -12 0 -24t-17 -18q-29 -13 -41 8zM571 3q0 -14 9.5 -23.5t22.5 -9.5t22.5 10t9.5 22q0 14 -9 23.5t-23 9.5t-23 -9.5t-9 -22.5zM426 655q0 -14 9.5 -23.5
t22.5 -9.5t22.5 10t9.5 22q0 14 -9 23.5t-23 9.5t-23 -9.5t-9 -22.5z" />
    <glyph glyph-name="c_t" horiz-adv-x="911" 
d="M285 -10q-112 0 -181.5 67.5t-69.5 194.5q0 106 46.5 172.5t125.5 83.5v57q0 78 45.5 120t119.5 42h325q20 0 33.5 -13.5t13.5 -33.5v-176h99q20 0 33.5 -14t13.5 -33t-13.5 -33t-33.5 -14h-99v-237q0 -33 8.5 -49.5t37.5 -16.5q9 0 28 3.5t26 4.5q23 2 40 -13t17 -41
q0 -32 -29 -49q-39 -22 -108 -22q-160 0 -160 153v267h-38q-19 0 -33 14t-14 33t14 33t33 14h38v124h-176q-63 0 -90 -21.5t-27 -80.5v-23q32 -13 54 -39l5 10q21 40 55 40q23 0 38 -13t15 -39v-125q0 -21 -17 -37.5t-41 -16.5q-45 0 -69 47l-5 9q-18 34 -34.5 49.5
t-42.5 15.5q-43 0 -68 -37t-25 -112q0 -78 34 -112.5t85 -34.5q40 0 81.5 18.5t59.5 18.5h2q27 0 41 -17t14 -40q0 -36 -45 -62q-65 -36 -162 -36z" />
    </font>
</defs>
</svg>
